<svg id="Layer_1" data-name="Layer 1" xmlns="http://www.w3.org/2000/svg" viewBox="0 0 250 310"><defs><style>.cls-1{fill:none;}.cls-2,.cls-4{fill:#89c1e7;}.cls-3{fill:#fff;}.cls-4{opacity:0.3;}</style></defs><path class="cls-1" d="M130.24,278.57l-2.19-.32a1.09,1.09,0,0,1-.83-.61l-1-2a1.1,1.1,0,0,0-2,0l-1,2a1.09,1.09,0,0,1-.83.61l-2.19.32a1.1,1.1,0,0,0-.61,1.88l1.58,1.55a1.11,1.11,0,0,1,.32,1l-.38,2.18a1.11,1.11,0,0,0,1.61,1.16l2-1a1.1,1.1,0,0,1,1,0l2,1a1.11,1.11,0,0,0,1.61-1.16L129,283a1.11,1.11,0,0,1,.32-1l1.59-1.55A1.1,1.1,0,0,0,130.24,278.57Z"/><polygon class="cls-1" points="139.76 252.31 136.35 252.31 136.35 268.2 146.57 268.2 146.57 265.37 139.76 265.37 139.76 252.31"/><polygon class="cls-1" points="98.3 252.31 95.01 252.31 89.31 268.2 92.7 268.2 94.01 264.23 99.28 264.23 100.63 268.2 104 268.2 98.34 252.42 98.3 252.31"/><polygon class="cls-1" points="156.57 252.31 153.28 252.31 147.58 268.2 150.97 268.2 152.28 264.23 157.55 264.23 158.9 268.2 162.27 268.2 156.61 252.42 156.57 252.31"/><polygon class="cls-1" points="125.89 268.2 129.26 268.2 123.6 252.42 123.56 252.31 120.27 252.31 114.57 268.2 117.96 268.2 119.27 264.23 124.54 264.23 125.89 268.2"/><polygon class="cls-1" points="115.92 252.31 102.3 252.31 102.3 255.15 107.41 255.15 107.41 268.2 110.81 268.2 110.81 255.15 115.92 255.15 115.92 252.31"/><path class="cls-1" d="M80.8,252.31H76.19V268.2h5.27c4.49,0,7.07-2.8,7.07-7.68C88.53,255.38,85.64,252.31,80.8,252.31Z"/><path class="cls-1" d="M173.44,259.83c.75-.28,1.72-1.06,1.72-3.24,0-2.84-1.71-4.28-5.07-4.28h-5.93V268.2h6.56c3.47,0,5.46-1.64,5.46-4.52A3.81,3.81,0,0,0,173.44,259.83Z"/><path class="cls-1" d="M212.27,136l5.17-6.87-7.83-7.82h0l-6.87,5.16q-1-.6-2-1.14a29.64,29.64,0,0,0-4.73-1.92c-.6-.18-1.21-.35-1.83-.5l-1.2-8.49H181.9l-1.2,8.49a29.21,29.21,0,0,0-8.57,3.56h0l-.62-.47-1.65-1.23-4.6-3.46h0l-2.51,2.5-5.32,5.32L162.6,136a28.83,28.83,0,0,0-3.56,8.57l-8.5,1.2v11.07h0l3,.42L159,158h0a29,29,0,0,0,3.56,8.57l-5.17,6.86,7.83,7.83,4.6-3.46,1.19-.89,1.08-.81a28.69,28.69,0,0,0,4.81,2.38,28.26,28.26,0,0,0,3.76,1.17l1.2,8.5H193l1.2-8.5a28.81,28.81,0,0,0,8.57-3.55h0l6.87,5.16,7.83-7.83-4.29-5.7-.88-1.16h0a29,29,0,0,0,3.56-8.57l8.5-1.21V145.74l-8.5-1.2A28.83,28.83,0,0,0,212.27,136Z"/><path class="cls-2" d="M221.35,90.64l-23.27-13a5.1,5.1,0,1,0-5.16,8.81l23.26,13a32.56,32.56,0,0,1,16.1,27.92v11.55l-6.69-.95-3.73-.52-.34-.83,2.26-3,4.06-5.38-4.77-4.76-7.87-7.85-4.78-4.77-5.4,4-3,2.25-.83-.34-.53-3.71-.94-6.67H175.08l-1,6.67-.53,3.71-.82.34-3-2.25-5.4-4-2.48,2.48v-6.9a7.56,7.56,0,0,0-5.95-7.38H145.1a25.19,25.19,0,0,1,2.64,7.38h6.77v10.22h-7.06a26,26,0,0,1-1.28,4.41,25.16,25.16,0,0,1-2.65,5.13l4.76,4.83-4.54,4.61L141.46,138l-4.77-4.84h0l-1,.68-.64.37-.43.25c-.29.16-.58.31-.88.45l-.21.12-1,.47-.08,0a24.84,24.84,0,0,1-4.76,1.49h0l-.29.06v6.84h-9.65v-7.1l-.1,0h-.08l-.66-.15h0l-.91-.22h0a25.59,25.59,0,0,1-2.65-.85c-.19-.07-.37-.13-.55-.21h0l-.12-.05a25.25,25.25,0,0,1-4.48-2.38h0l-4.83,4.77-2.8-2.77-1.8-1.78-2.31-2.27,2.38-2.36,0,0,2.41-2.38a24.69,24.69,0,0,1-2.2-3.88l-.21-.46a25.07,25.07,0,0,1-1.58-5.09H90.38V107h7a26.81,26.81,0,0,1,3.91-9.86l-4.7-4.87h0l6.82-7.08,4.69,4.86a20.67,20.67,0,0,1,1.78-1.14,23.74,23.74,0,0,1,2.4-1.25,24.21,24.21,0,0,1,4.74-1.58h0V71a3.69,3.69,0,1,0-7.38,0v9.3l-.06,0-.75-.78a7.46,7.46,0,0,0-10.83,0l-.2.21-6.58,6.84a7.54,7.54,0,0,0-1.44,2,8.21,8.21,0,0,0,1.4,9.26l.77.79-.15.37H90.21a7,7,0,0,0-1,.08,7.75,7.75,0,0,0-6.75,7.68v9.78a7.75,7.75,0,0,0,5,7.25q-7.22,1.61-14.21,3.8a173.13,173.13,0,0,0-31.56,13.5Q36,144.3,30.49,147.87q-6.6,4.31-12.77,9.19V127.37a32.12,32.12,0,0,1,1.36-9.18A32.76,32.76,0,0,1,33.82,99.45l10.31-6.07,13.8-8.12,11.69-6.88,8.54-5,3.24-1.91,10.2-6L117.81,50a5.11,5.11,0,0,0-5.18-8.8l-84,49.43A42.8,42.8,0,0,0,7.51,127.37v89.14a42.79,42.79,0,0,0,21.14,36.73L103,296.88a43.5,43.5,0,0,0,44,0l74.34-43.64a42.79,42.79,0,0,0,21.14-36.73V127.37A42.8,42.8,0,0,0,221.35,90.64Zm-106,81.45.79-3.34c.26-1.05,1.38-1.58,3.37-1.58h3.58c2,0,3.16.53,3.42,1.58L130.81,187l2.32,9.79,1.85,7.85a8.05,8.05,0,0,1,.11,1c0,.83-.79,1.24-2.37,1.24h-2.46c-1.86,0-2.89-.41-3.08-1.25l-1.37-6.56-.14-.7h-8.85l-1.57,7.26c-.15.84-1.06,1.25-2.73,1.25h-2.41a5.93,5.93,0,0,1-1.6-.17c-.7-.19-1-.55-1-1.07a3.57,3.57,0,0,1,.16-1l.11-.48Zm-10.2,56.6v12.73c0,.83-.73,1.24-2.18,1.24h-1.3c-1.46,0-2.19-.41-2.19-1.24V216.66c0-.83.73-1.24,2.19-1.24h1a3,3,0,0,1,1.21.21,1.65,1.65,0,0,1,.75.87l2.48,4.6,4,7.42.32.6a27.52,27.52,0,0,1,1.28,3l.15-.08a22.5,22.5,0,0,1-.3-3.06V216.66c0-.83.73-1.24,2.19-1.24H116c1.46,0,2.19.41,2.19,1.24v24.76c0,.83-.73,1.24-2.19,1.24h-.72a3.18,3.18,0,0,1-1.24-.21,1.59,1.59,0,0,1-.79-.87L112,239.37l-4.83-8.82-1-1.78-.19-.35a17.14,17.14,0,0,1-1-2.48l-.19.12A17.61,17.61,0,0,1,105.13,228.69ZM84.7,170a4.59,4.59,0,0,1,.38-2.14,1.28,1.28,0,0,1,1.2-.68h20.63a1.32,1.32,0,0,1,1.25.68,4.59,4.59,0,0,1,.38,2.14v1.74a4.59,4.59,0,0,1-.38,2.14,1.32,1.32,0,0,1-1.25.68h-6.32v30a1.29,1.29,0,0,1,0,.35c-.19,1-1.22,1.44-3.1,1.44H95.23a5.09,5.09,0,0,1-2.3-.42,1.47,1.47,0,0,1-.85-1.37v-30h-5.8a1.28,1.28,0,0,1-1.2-.68,4.59,4.59,0,0,1-.38-2.14ZM42.13,219.14a3.23,3.23,0,0,1-.25,1.48.83.83,0,0,1-.79.47H34.75v5.68H40.5a.88.88,0,0,1,.81.47,3.23,3.23,0,0,1,.25,1.48v1.21a3.26,3.26,0,0,1-.25,1.48.88.88,0,0,1-.81.47H34.75v6.24h6.37a.83.83,0,0,1,.78.42,2.84,2.84,0,0,1,.23,1.31v1.08a2.91,2.91,0,0,1-.23,1.32.84.84,0,0,1-.78.41H29.89a1.39,1.39,0,0,1-1.05-.36,1.69,1.69,0,0,1-.33-1.16V217.51a1.67,1.67,0,0,1,.33-1.16,1.36,1.36,0,0,1,1.05-.37h11.2a.83.83,0,0,1,.73.39l.06.08a3.28,3.28,0,0,1,.25,1.45v1.24Zm-1.78-12.8H30a2,2,0,0,1-1.53-.54,2.48,2.48,0,0,1-.49-1.7V169.41a2.53,2.53,0,0,1,.49-1.71,2,2,0,0,1,1.53-.53H40.35a16.59,16.59,0,0,1,3.78.41A10.83,10.83,0,0,1,50.82,172q3.36,4.86,3.36,14.71a37.18,37.18,0,0,1-1,9.38,16.81,16.81,0,0,1-2.33,5.34,10.59,10.59,0,0,1-4.43,3.7,11.72,11.72,0,0,1-2.3.77A16.89,16.89,0,0,1,40.35,206.34ZM63.7,238.67v2.75c0,.83-.73,1.24-2.19,1.24h-.72a3.18,3.18,0,0,1-1.24-.21,1.59,1.59,0,0,1-.79-.87l-2.12-3.87-5.09-9.29a18.42,18.42,0,0,1-1-2.48l-.19.12a18,18,0,0,1,.31,2.63v12.73c0,.83-.73,1.24-2.19,1.24h-.73c-1.46,0-2.19-.41-2.19-1.24V216.66c0-.83.73-1.24,2.19-1.24h1a2.87,2.87,0,0,1,1.2.21,1.63,1.63,0,0,1,.76.87l6.79,12.62a27.52,27.52,0,0,1,1.28,3l.15-.08a22.5,22.5,0,0,1-.3-3.06V216.66c0-.83.73-1.24,2.19-1.24h.73c1.46,0,2.19.41,2.19,1.24Zm1.8-33c-.15.84-1.07,1.25-2.73,1.25H60.36c-1.76,0-2.65-.41-2.65-1.24a3.61,3.61,0,0,1,.17-1l1.8-7.62,6.69-28.28c.26-1.05,1.38-1.58,3.37-1.58h3.58c2,0,3.16.53,3.42,1.58l6.75,28.54,1.74,7.36a8.05,8.05,0,0,1,.11,1c0,.83-.79,1.24-2.37,1.24H80.51c-1.86,0-2.89-.41-3.08-1.25l-1.52-7.26H67.07Zm4.22,33.09-.3-.45c-1.46-2.24-2.2-5.56-2.2-10q0-6.88,2.52-10.26t7.82-3.37a13.08,13.08,0,0,1,3.27.4,8.91,8.91,0,0,1,2.56,1c.65.43,1,.85,1,1.29a3.45,3.45,0,0,1-.39,1.34,6.12,6.12,0,0,1-1,1.47,1.55,1.55,0,0,1-1,.64,3.11,3.11,0,0,1-.78-.29,10,10,0,0,0-1.43-.5,7.44,7.44,0,0,0-1.88-.21,3.76,3.76,0,0,0-3.54,2.07q-1.12,2.07-1.12,6.43c0,3.12.35,5.32,1.07,6.61a3.42,3.42,0,0,0,3.17,1.93,6.8,6.8,0,0,0,1.54-.15v-5.59h-2.3a.9.9,0,0,1-.84-.46,3.14,3.14,0,0,1-.26-1.46V228a3.14,3.14,0,0,1,.26-1.46.92.92,0,0,1,.84-.46h6.59a1.33,1.33,0,0,1,1,.37,1.65,1.65,0,0,1,.34,1.17V239a2,2,0,0,1-1.15,1.59,9.19,9.19,0,0,1-2.83,1.09,14.42,14.42,0,0,1-3.24.38C74,242.09,71.39,241,69.72,238.74ZM81.46,268.2H76.19V252.31H80.8c4.84,0,7.73,3.07,7.73,8.21C88.53,265.4,86,268.2,81.46,268.2Zm7.78-51.51c0-.85.7-1.27,2.1-1.27h1.52c1.37,0,2.06.42,2.06,1.27v24.7c0,.85-.69,1.27-2.06,1.27H91.34c-1.4,0-2.1-.42-2.1-1.27Zm11.39,51.51-1.35-4H94l-1.31,4H89.31L95,252.31H98.3l0,.11L104,268.2Zm10.18,0H107.4v-13h-5.1v-2.84h13.62v2.84h-5.11Zm7.15,0h-3.39l5.7-15.89h3.29l0,.11,5.66,15.78h-3.37l-1.35-4h-5.27Zm12.9,12.25L129.27,282a1.11,1.11,0,0,0-.32,1l.38,2.18a1.11,1.11,0,0,1-1.61,1.16l-2-1a1.1,1.1,0,0,0-1,0l-2,1a1.11,1.11,0,0,1-1.61-1.16l.38-2.18a1.11,1.11,0,0,0-.32-1l-1.58-1.55a1.1,1.1,0,0,1,.61-1.88l2.19-.32a1.09,1.09,0,0,0,.83-.61l1-2a1.1,1.1,0,0,1,2,0l1,2a1.09,1.09,0,0,0,.83.61l2.19.32A1.1,1.1,0,0,1,130.86,280.45Zm4.92-61.31a3.06,3.06,0,0,1-.27,1.48.9.9,0,0,1-.85.47h-6.82v5.68h5.74a.86.86,0,0,1,.81.47,3.21,3.21,0,0,1,.26,1.48v1.21a3.24,3.24,0,0,1-.26,1.48.86.86,0,0,1-.81.47h-5.74v6.24h6.86a.89.89,0,0,1,.83.42,2.57,2.57,0,0,1,.25,1.31v1.08a2.63,2.63,0,0,1-.25,1.32.9.9,0,0,1-.83.41H123.54a1.35,1.35,0,0,1-1-.36,1.64,1.64,0,0,1-.34-1.16V217.51a1.63,1.63,0,0,1,.34-1.16,1.32,1.32,0,0,1,1-.37h11.12a.91.91,0,0,1,.85.47,3.09,3.09,0,0,1,.27,1.48Zm10.79,49.06H136.35V252.31h3.41v13.06h6.81Zm-6-25.54a1.35,1.35,0,0,1-1-.36,1.64,1.64,0,0,1-.34-1.16V217.51a1.63,1.63,0,0,1,.34-1.16,1.32,1.32,0,0,1,1-.37h11.12a.91.91,0,0,1,.85.47,3.09,3.09,0,0,1,.27,1.48v1.21a3.06,3.06,0,0,1-.27,1.48.9.9,0,0,1-.85.47h-6.82v5.68h5.74a.86.86,0,0,1,.81.47,3.21,3.21,0,0,1,.26,1.48v1.21a3.24,3.24,0,0,1-.26,1.48.86.86,0,0,1-.81.47h-5.74v6.24h6.86a.9.9,0,0,1,.83.42,2.57,2.57,0,0,1,.25,1.31v1.08a2.63,2.63,0,0,1-.25,1.32.91.91,0,0,1-.83.41ZM158.9,268.2l-1.35-4h-5.27l-1.31,4h-3.39l5.7-15.89h3.29l0,.11,5.66,15.78Zm3-35.76v9c0,.81-.73,1.21-2.21,1.21h-1.25c-1.48,0-2.21-.4-2.21-1.21V217.5a1.57,1.57,0,0,1,.35-1.15,1.47,1.47,0,0,1,1.12-.37h6.37a8.41,8.41,0,0,1,5.54,1.75q2.09,1.74,2.09,5.8a6.83,6.83,0,0,1-3.29,6.3,4.72,4.72,0,0,1,1.28,1.34,8.22,8.22,0,0,1,1,2.25l2.27,7.21.12.45c0,.68-.8,1-2.39,1h-1.35c-1.36,0-2.13-.33-2.31-1L165,234a3,3,0,0,0-.79-1.17,2.4,2.4,0,0,0-1.41-.34Zm8.83,35.76h-6.56V252.31h5.93c3.36,0,5.07,1.44,5.07,4.28,0,2.18-1,3-1.72,3.24a3.81,3.81,0,0,1,2.74,3.85C176.18,266.56,174.19,268.2,170.72,268.2Zm10.47-26.81c0,.85-.69,1.27-2.06,1.27h-1.52c-1.4,0-2.09-.42-2.09-1.27v-24.7c0-.85.69-1.27,2.09-1.27h1.52c1.37,0,2.06.42,2.06,1.27Zm22.14,0c0,.83-.73,1.24-2.19,1.24h-.72a3.14,3.14,0,0,1-1.24-.21,1.59,1.59,0,0,1-.79-.87l-7.21-13.16a17.14,17.14,0,0,1-1-2.48l-.19.12a17.61,17.61,0,0,1,.3,2.63v12.73c0,.83-.73,1.24-2.19,1.24h-.73c-1.46,0-2.19-.41-2.19-1.24V216.66c0-.83.73-1.24,2.19-1.24h1a2.89,2.89,0,0,1,1.21.21,1.71,1.71,0,0,1,.76.87l6.79,12.62a27.52,27.52,0,0,1,1.28,3l.15-.08a22.5,22.5,0,0,1-.3-3.06V216.66c0-.83.73-1.24,2.19-1.24h.73c1.46,0,2.19.41,2.19,1.24ZM223.76,234v5.27a2,2,0,0,1-1.15,1.61,9.19,9.19,0,0,1-2.83,1.1,14.45,14.45,0,0,1-3.24.39l-.39,0q-5-.12-7.37-3.37t-2.5-10.54q0-7,2.52-10.38t7.82-3.4a13.08,13.08,0,0,1,3.27.4,8.89,8.89,0,0,1,2.56,1.05c.65.42,1,.86,1,1.3a3.54,3.54,0,0,1-.39,1.35,6.06,6.06,0,0,1-1,1.49,1.5,1.5,0,0,1-1,.64,3.11,3.11,0,0,1-.78-.29,10,10,0,0,0-1.43-.5,7,7,0,0,0-1.88-.22,3.76,3.76,0,0,0-3.54,2.09,14.33,14.33,0,0,0-1.12,6.5c0,3.15.35,5.38,1.07,6.68a3.42,3.42,0,0,0,3.17,2,6.89,6.89,0,0,0,1.55-.15v-5.65h-1.75a.91.91,0,0,1-.83-.46,3.21,3.21,0,0,1-.26-1.48v-1.23a3.16,3.16,0,0,1,.26-1.47.9.9,0,0,1,.83-.47h6a1.33,1.33,0,0,1,1,.37,1.68,1.68,0,0,1,.34,1.18Zm.57-82.91v5.71l-8.5,1.21a29,29,0,0,1-3.56,8.57h0l.88,1.16,4.29,5.7-7.83,7.83-6.87-5.16h0a28.81,28.81,0,0,1-8.57,3.55l-1.2,8.5H181.9l-1.2-8.5a28.26,28.26,0,0,1-3.76-1.17,28.69,28.69,0,0,1-4.81-2.38l-1.08.81-1.19.89-4.6,3.46-7.83-7.83,5.17-6.86A29,29,0,0,1,159,158h0l-5.53-.79-3-.42h0V145.74l8.5-1.2A28.83,28.83,0,0,1,162.6,136l-5.17-6.87,5.32-5.32,2.51-2.5h0l4.6,3.46,1.65,1.23.62.47h0a29.21,29.21,0,0,1,8.57-3.56l1.2-8.49H193l1.2,8.49c.62.15,1.23.32,1.83.5a29.64,29.64,0,0,1,4.73,1.92q1,.54,2,1.14l6.87-5.16h0l7.83,7.82L212.27,136a28.83,28.83,0,0,1,3.56,8.57l8.5,1.2Z"/><path class="cls-2" d="M71.61,175.69h-.27c-.18,1.47-.4,2.86-.65,4.19l-2.37,11.7h6.36l-2.42-11.7C72,178.55,71.79,177.16,71.61,175.69Z"/><path class="cls-2" d="M165.31,226a4.21,4.21,0,0,0,.57-2.4,3.76,3.76,0,0,0-.57-2.3,1.8,1.8,0,0,0-1.48-.72h-1.94v6.24h2.05A1.67,1.67,0,0,0,165.31,226Z"/><path class="cls-2" d="M43.92,176.11a4.13,4.13,0,0,0-3.41-1.56H37V199h3.49a4.27,4.27,0,0,0,4.14-2.76,10.43,10.43,0,0,0,.46-1.34,32.15,32.15,0,0,0,.79-8.11q0-6.67-1.25-9.44A5.4,5.4,0,0,0,43.92,176.11Z"/><path class="cls-2" d="M124,189.23,122,179.88c-.25-1.33-.47-2.72-.65-4.19h-.27c-.18,1.47-.4,2.86-.65,4.19L118.18,191l-.11.54h6.36Z"/><path class="cls-3" d="M168.14,230l.26-.18c-.09-.05-.17-.12-.26-.16Z"/><path class="cls-4" d="M69.77,78.38a272.84,272.84,0,0,1,12.66,31.36v-3a7.74,7.74,0,0,1,6.73-7.68A257.12,257.12,0,0,0,78.31,73.35Z"/><path class="cls-4" d="M81.86,71.44a130.12,130.12,0,0,1,15.8,8.75l.21-.21a7.76,7.76,0,0,1,11,0l.77.77.06,0v-4.3a143.71,143.71,0,0,0-17.62-11Z"/><path class="cls-4" d="M82.43,116.54v-.2A94.38,94.38,0,0,1,68.57,118a104.56,104.56,0,0,1-21.26-1.17A244.72,244.72,0,0,1,58.08,85.26L44.29,93.38c-2.43,6.75-4.67,13.89-6.67,21.32a73.35,73.35,0,0,1-14.11-5.46,32.78,32.78,0,0,0-4.28,9,83.34,83.34,0,0,0,16,6.12c-.76,3.27-1.49,6.58-2.16,9.93-.91,4.49-1.71,9-2.42,13.57q5.46-3.57,11.18-6.72c.3-1.62.61-3.24,1-4.89.66-3.29,1.38-6.55,2.13-9.76A115.35,115.35,0,0,0,69,127.88c1.44-.07,2.87-.16,4.28-.28q7-2.2,14.18-3.81A7.74,7.74,0,0,1,82.43,116.54Z"/><polygon class="cls-1" points="154.5 116.66 147.69 116.66 147.69 116.66 154.5 116.66 154.5 116.66"/><path class="cls-2" d="M79.59,255.15v10.22h1.92c2.36,0,3.77-1.83,3.77-4.89,0-3.54-1.49-5.33-4.44-5.33Z"/><polygon class="cls-2" points="121.91 256.39 120.23 261.39 123.62 261.39 121.91 256.39"/><polygon class="cls-2" points="154.92 256.39 153.24 261.39 156.63 261.39 154.92 256.39"/><polygon class="cls-2" points="96.65 256.39 94.97 261.39 98.36 261.39 96.65 256.39"/><path class="cls-2" d="M172.17,257.11c0-1.3-.88-2-2.62-2h-2v4H170C171.48,259.12,172.17,258.48,172.17,257.11Z"/><path class="cls-2" d="M172.46,263.39c0-1.65-1.34-2-2.46-2h-2.43v4h2.5C171.7,265.37,172.46,264.74,172.46,263.39Z"/><path class="cls-2" d="M175.81,159.66a14.44,14.44,0,0,0,2.12,2.43l.11.09c.27.25.55.48.84.7a14.49,14.49,0,1,0,16.54-23.76l-.37-.23a14.45,14.45,0,0,0-7.35-2h0a14.51,14.51,0,0,0-14.5,14.49,14.42,14.42,0,0,0,2.61,8.28Zm15.44-14,.39.27a6.73,6.73,0,0,1-3.94,12.19,6.64,6.64,0,0,1-2.33-.41,6.53,6.53,0,0,1-1.24-.62,5.14,5.14,0,0,1-.54-.37l-.23-.18a6.74,6.74,0,0,1,4.34-11.9,6.89,6.89,0,0,1,1.88.27A7.17,7.17,0,0,1,191.25,145.66Z"/><path class="cls-2" d="M113.22,111.65a9.14,9.14,0,1,0,9.14-9.15A9.14,9.14,0,0,0,113.22,111.65Zm9.14-1.39a1.39,1.39,0,1,1-1.38,1.39A1.39,1.39,0,0,1,122.36,110.26Z"/><path class="cls-2" d="M155.65,37.79a5.06,5.06,0,0,0,5.11-5V12.15a5.11,5.11,0,0,0-10.22,0V32.78A5.06,5.06,0,0,0,155.65,37.79Z"/><path class="cls-2" d="M176.08,73.55a5.05,5.05,0,0,0,5.11-5V47.91a5.11,5.11,0,0,0-10.21,0V68.54A5.05,5.05,0,0,0,176.08,73.55Z"/><path class="cls-2" d="M176.08,83.64A5.07,5.07,0,0,0,171,88.7v5.46a5.11,5.11,0,0,0,10.21,0V88.7A5.08,5.08,0,0,0,176.08,83.64Z"/><path class="cls-2" d="M155.65,73.42a5.08,5.08,0,0,0-5.11,5.06v5.46a5.11,5.11,0,0,0,10.22,0V78.48A5.08,5.08,0,0,0,155.65,73.42Z"/><path class="cls-2" d="M160.76,52.94a5.11,5.11,0,0,0-10.22,0V58.4a5.11,5.11,0,0,0,10.22,0Z"/><path class="cls-2" d="M135.22,83.77a5.08,5.08,0,0,0,5.11-5V57.93a5.11,5.11,0,0,0-10.22,0V78.72A5.07,5.07,0,0,0,135.22,83.77Z"/><path class="cls-2" d="M135.22,42.8a5.09,5.09,0,0,0,5.11-5.06V32.28a5.11,5.11,0,0,0-10.22,0v5.46A5.08,5.08,0,0,0,135.22,42.8Z"/></svg>