<svg xmlns="http://www.w3.org/2000/svg" xmlns:xlink="http://www.w3.org/1999/xlink" viewBox="0 0 250 310"><defs><style>.cls-1{fill:none;}.cls-2{isolation:isolate;}.cls-3{clip-path:url(#clip-path);}.cls-4{fill:#fff;}.cls-5{fill:#e5e6e7;mix-blend-mode:multiply;}.cls-6{opacity:0.3;}.cls-7{fill:#de6d26;}</style><clipPath id="clip-path"><path class="cls-1" d="M335.58,119.24V248.05a93.6,93.6,0,0,0,46.65,81l110.37,64a93.62,93.62,0,0,0,93.95,0l110.38-64a93.61,93.61,0,0,0,46.64-81V119.24a93.62,93.62,0,0,0-46.64-81l-110.38-64a93.62,93.62,0,0,0-93.95,0l-110.37,64A93.61,93.61,0,0,0,335.58,119.24Z"/></clipPath></defs><g class="cls-2"><g id="Layer_1" data-name="Layer 1"><g class="cls-3"><rect class="cls-4" x="176.81" y="-319.12" width="1012.44" height="960.02"/><rect class="cls-5" x="176.81" y="-399.81" width="1012.44" height="960.02"/></g><path class="cls-1" d="M68.6,118a93.31,93.31,0,0,0,15.9-2A284.31,284.31,0,0,0,69.8,78.38L58.12,85.26a245.09,245.09,0,0,0-10.77,31.53A103.74,103.74,0,0,0,68.6,118Z"/><path class="cls-1" d="M107.32,107.41a51.33,51.33,0,0,1-.7-20.71,133,133,0,0,0-25-15.26l-3.24,1.91A293.68,293.68,0,0,1,94,113.26,78.36,78.36,0,0,0,107.32,107.41Z"/><path class="cls-1" d="M44.32,93.38,34,99.45a32.71,32.71,0,0,0-10.46,9.79,73.09,73.09,0,0,0,14.11,5.46C39.66,107.27,41.9,100.13,44.32,93.38Z"/><path class="cls-1" d="M145.72,104.34a4.77,4.77,0,0,1,4.82,4.73V122.8a28,28,0,0,0,7.12.62,28.79,28.79,0,0,0,3.1-.31v-3.67a5.11,5.11,0,0,1,10.22,0v0s14.29-14.67,13.84-25.32c-.42-9.79-13.28-22.91-13.28-22.91v2.25a5.39,5.39,0,0,1-10.78,0V67.58a27.52,27.52,0,0,0-4.18-.31c-.4,0-.8,0-1.2,0a27.61,27.61,0,0,0-4.86.64c0,.14,0,.27,0,.41V89a5.11,5.11,0,0,1-10.21,0V72.45s-12.06,14.24-11.64,24.09c.38,9,12.2,21.72,12.2,21.72v-9.19A4.77,4.77,0,0,1,145.72,104.34Zm15-10.53a5.11,5.11,0,0,1,10.22,0v5.46a5.11,5.11,0,0,1-10.22,0Z"/><path class="cls-1" d="M69,127.88a115.27,115.27,0,0,1-24.13-1.44c-.76,3.21-1.47,6.47-2.14,9.76-.33,1.65-.64,3.27-.94,4.89A171.46,171.46,0,0,1,73.32,127.6C71.9,127.72,70.47,127.81,69,127.88Z"/><path class="cls-1" d="M32.88,134.24q1-5,2.16-9.93a83.34,83.34,0,0,1-16-6.12,32.12,32.12,0,0,0-1.36,9.18V157q6.16-4.87,12.74-9.19C31.16,143.27,32,138.73,32.88,134.24Z"/><path class="cls-1" d="M110.65,116.92a85.77,85.77,0,0,1-9.65,4.42q5.59-.78,11.31-1.21C111.72,119.08,111.16,118,110.65,116.92Z"/><path class="cls-1" d="M201.81,118.64l30.47,32.54V127.37a32.56,32.56,0,0,0-16.1-27.92l-8.76-4.89A50.69,50.69,0,0,1,201.81,118.64Z"/><g class="cls-6"><path class="cls-7" d="M94,113.26A293.68,293.68,0,0,0,78.35,73.35l-8.55,5a284.31,284.31,0,0,1,14.7,37.54,93.31,93.31,0,0,1-15.9,2,103.74,103.74,0,0,1-21.25-1.18A245.09,245.09,0,0,1,58.12,85.26l-13.8,8.12c-2.42,6.75-4.66,13.89-6.66,21.32a73.09,73.09,0,0,1-14.11-5.46,32.78,32.78,0,0,0-4.28,9,83.34,83.34,0,0,0,16,6.12q-1.15,4.91-2.17,9.93c-.9,4.49-1.71,9-2.41,13.57q5.45-3.57,11.18-6.72c.3-1.62.61-3.24.94-4.89.67-3.29,1.38-6.55,2.14-9.76A115.27,115.27,0,0,0,69,127.88c1.43-.07,2.86-.16,4.28-.28A170.54,170.54,0,0,1,101,121.34a85.77,85.77,0,0,0,9.65-4.42,50.1,50.1,0,0,1-3.33-9.51A78.36,78.36,0,0,1,94,113.26Z"/><path class="cls-7" d="M109.5,76.48a144,144,0,0,0-17.71-11l-10.2,6a133,133,0,0,1,25,15.26A50.07,50.07,0,0,1,109.5,76.48Z"/></g><path class="cls-7" d="M155.65,37.79a5.06,5.06,0,0,0,5.11-5V12.15a5.11,5.11,0,0,0-10.22,0V32.78A5.06,5.06,0,0,0,155.65,37.79Z"/><path class="cls-7" d="M165.87,88.74a5.09,5.09,0,0,0-5.11,5.07v5.46a5.11,5.11,0,0,0,10.22,0V93.81A5.09,5.09,0,0,0,165.87,88.74Z"/><path class="cls-7" d="M176.08,32.71a5,5,0,0,0,5.11-5V22.32a5.11,5.11,0,0,0-10.21,0v5.39A5,5,0,0,0,176.08,32.71Z"/><polygon class="cls-7" points="121.91 256.39 120.23 261.39 123.62 261.39 121.91 256.39"/><polygon class="cls-7" points="153.24 261.39 156.63 261.39 154.92 256.39 153.24 261.39"/><path class="cls-7" d="M170,261.39h-2.43v4h2.5c1.63,0,2.39-.62,2.39-2C172.46,261.74,171.12,261.39,170,261.39Z"/><path class="cls-7" d="M172.17,257.11c0-1.3-.88-2-2.62-2h-2v4H170C171.48,259.12,172.17,258.48,172.17,257.11Z"/><path class="cls-7" d="M80.84,255.15H79.59v10.21h1.92c2.36,0,3.77-1.82,3.77-4.88C85.28,256.94,83.79,255.15,80.84,255.15Z"/><polygon class="cls-7" points="94.97 261.39 98.36 261.39 96.65 256.39 94.97 261.39"/><path class="cls-7" d="M171.16,62.34A35.88,35.88,0,0,0,161,59.57l-.2,0a36.08,36.08,0,0,0-5.52-.19,35.52,35.52,0,0,0-4.16.43,36,36,0,0,0-20.83,60c.48.51,1,1,1.46,1.5a36.61,36.61,0,0,0,8.81,6.28c1,.49,2,.94,3,1.34a35.15,35.15,0,0,0,7.14,2c.51.09,1,.16,1.52.23a36.73,36.73,0,0,0,4.59.3c.52,0,1,0,1.55,0s.95-.06,1.42-.1a36,36,0,0,0,11.46-68.92ZM171,119.49v0a5.11,5.11,0,0,0-10.22,0v3.67a28.79,28.79,0,0,1-3.1.31,28,28,0,0,1-7.12-.62V109.21a5.11,5.11,0,0,0-10.21,0v9.05s-11.26-12.71-11.64-21.72c-.42-9.85,12.2-24.09,12.2-24.09V89.11a4.83,4.83,0,0,0,9.65,0V68.34c0-.14,0-.27,0-.41a27.61,27.61,0,0,1,4.86-.64c.4,0,.8,0,1.2,0a27.52,27.52,0,0,1,4.18.31v6.07a5.11,5.11,0,0,0,10.22,0V71.26s13.42,13.12,13.84,22.91C185.27,104.82,171,119.49,171,119.49Z"/><path class="cls-7" d="M95,220h-.18c-.17,1.93-1.56,8.23-1.94,10.21h4.09C96.53,228.15,95.12,221.93,95,220Z"/><path class="cls-7" d="M65.45,179.31c-.26-1.32-.47-2.72-.65-4.19h-.27c-.28,3-2.43,12.8-3,15.89h6.36Z"/><path class="cls-7" d="M221.37,90.64l-15.73-8.78a51,51,0,0,0-24.45-31V47.88c.16-5.73-8.73-6.75-10-1.27a51.32,51.32,0,0,0-30.85.53V32.39c.09-6.55-10.32-6.55-10.22,0v19.5c-23,13.38-31.4,45.31-18,68.24A172.44,172.44,0,0,0,17.72,157c.73-19.79-5.15-45.87,16.1-57.55,15-8.82,32.59-19.2,47.58-28,6.76-4.24,29.3-17,36.41-21.43,5.75-3.22.49-12.29-5.18-8.8l-84,49.43A42.8,42.8,0,0,0,7.51,127.37v89.14a42.79,42.79,0,0,0,21.14,36.73L103,296.88a43.51,43.51,0,0,0,44,0l74.34-43.64a42.79,42.79,0,0,0,21.14-36.73V127.35A42.77,42.77,0,0,0,221.37,90.64Zm-14,3.92c28.29,12.83,25,30.05,24.86,56.62l-30.47-32.54A50.69,50.69,0,0,0,207.42,94.56Zm-98.11,73.62c.27-2.12,5.16-1.49,7-1.58,2,0,3.16.53,3.42,1.58,2.18,9.24,6.36,26.86,8.49,35.9.34,1.68,0,2.19-2.26,2.26-1.48,0-5.43.28-5.54-1.26-.37-1.75-1.14-5.48-1.52-7.26H110l-1.57,7.26c-.15.84-1.07,1.26-2.73,1.26-1.86,0-6.15.45-4.89-2.26C101.52,201.09,108.85,170.15,109.31,168.18ZM133,219.39c-1.44-.17-4.39.8-4-1.8,0-.71-.1-2.36.23-2.88-.1-.88,8.67-.25,9.09-.43h4.62c.88.3,1.56,3.05,1.21,3.88-2.19,4.1-6.63,12.44-8.83,16.55h8c1.57,0,1.08,3.77.78,4.68.46.86-14.24.27-14.47.43-.89-.17-1.54-2.78-1.35-3.55.37-.64,8.35-15.69,9-16.88Zm2.26-58.77a5.09,5.09,0,0,1,5.11,5.06c.12,4,.67,10.52-5.11,10.52a5.08,5.08,0,0,1-5.11-5.06C130,167.11,129.44,160.63,135.22,160.62Zm-5.11-15.13v-6.67a50.58,50.58,0,0,0,10.22,4.78C141.82,151.3,130.78,153.39,130.11,145.49Zm-4.54,70V236.4c-.1,1.57.65,3.62-2.06,3.42-1.18-.06-3.59.34-3.62-1.19V215.48C119.54,213.77,125.92,213.77,125.57,215.48Zm-9,19.8c1.36,0,1,1.81,1.07,2.81s-.1,1.69-1.07,1.73H107c-.94,0-1.32-.44-1.32-1.38v-23c-.32-1.69,6-1.67,5.68,0v19.82ZM103.77,239c.27,1.24-5.41,1.08-5.33,0-.2-1-.72-3.43-.91-4.36h-5.3c0,.06-.93,4.36-1,4.43-.17,1-2.7.62-3.54.68-1.42,0-2-.4-1.6-1.45l5.46-23.07c.17-1.37,3.32-1,4.47-1q2,0,2.19,1l2.58,10.89,2.88,12.18A5.69,5.69,0,0,1,103.77,239Zm-25.88-69.6c0-1.49.12-2.72,1.57-2.82,2,0,19.22,0,20.64,0,2.4-.07,1.73,5.34,1.25,6.71-.41,1-2,.62-2.86.67H93.78v30c.28,2-3.65,1.82-5.37,1.78-2.09,0-3.14-.6-3.14-1.78V174H79.46C77.41,173.91,78,171,77.89,169.42ZM51.07,204.08l1-4.27,7.48-31.63c.27-2.12,5.16-1.49,7-1.58,2,0,3.16.53,3.42,1.58l7.55,31.93c.09,2,3,6.6-1.32,6.23-1.49,0-5.43.28-5.54-1.26l-1.52-7.26H60.26c-.29,1.41-1.26,5.79-1.57,7.26-.07,1.57-3.76,1.23-5.14,1.26C51.16,206.32,50.56,205.69,51.07,204.08ZM40.2,215.73l-.31,1.34-5.08,22c.09,1.15-6.7,1.12-6.6,0-1.32-5.77-4.2-18.12-5.53-24-.07-1.17,5.42-1.24,5.34.26.59,3.41,3.15,16.07,3.42,19.37h.14c.39-4.12,2.71-15.14,3.46-19.37,0-1.16,2.18-1.1,3.24-1.06S40.74,214.47,40.2,215.73Zm7.61,21c.28,3.08-.49,3.15-3.58,3-1.4,0-2.1-.39-2.1-1.19V215.48c-.18-1.35,2.47-1.23,3.62-1.2,1.37,0,2.06.4,2.06,1.2Zm-1.49-38c-2.67,7.2-11.25,7.29-18.11,7-1.81-.25-6.36,1-5.94-2.24,0-6.49,0-27.86,0-34.69-.44-3.46,4.85-1.91,6.7-2.24,2.57.12,7.44-.28,9.81.49C50.51,169.89,49.91,189.78,46.32,198.82ZM64,236.28c-1.75,6.38-18.58,4-11.57-2.53,1.28.39,3,1.76,4.26,1.6a2.62,2.62,0,0,0,2-4.55c-1.59-1.38-5.45-3.2-6.43-5C50,222.73,50.8,216.77,54.61,215c2.41-1.3,8.22-1.51,9.13,1.69,0,1.33-.59,3.92-2.44,2.76-3.11-1.68-6.46.6-4.22,3.57C62.23,225.91,67,229.72,64,236.28ZM69.37,238c-4.12-2.81-1.62-18.4-2.27-22.58-.32-1.68,6-1.63,5.68,0V232c-.29,4.39,6.5,4.35,6.24,0V215.44c0-.77.72-1.16,2.14-1.16,1.14-.06,3.14,0,3,1.16v16.88C84.74,240.05,74.14,242.13,69.37,238ZM81.46,268.2H76.19V252.31H80.8C90.53,251.34,91.36,268.84,81.46,268.2Zm19.17,0-1.35-4H94l-1.31,4H89.31L95,252.31H98.3c0,.1,5.67,15.79,5.7,15.89Zm10.18,0H107.4v-13h-5.1v-2.84h13.62v2.84h-5.11Zm7.15,0h-3.39l5.7-15.89h3.29c0,.1,5.66,15.79,5.7,15.89h-3.37l-1.35-4h-5.27Zm12.9,12.25c-.45.56-2.16,1.66-1.91,2.53.24,1.11,1,4.14-1.23,3.34-.67-.25-2.23-1.53-3-1-3.23,2-4.08,1.38-3.19-2.31.26-.87-1.47-2-1.9-2.53-1.44-1.86,1.66-2.09,2.8-2.2,1.51-.24,1.77-5,3.79-2.59.4.6.91,2.56,1.81,2.59C129.18,278.37,132.3,278.59,130.86,280.45Zm15.71-12.25H136.35V252.31h3.41v13.06h6.81Zm12.33,0-1.35-4h-5.27l-1.31,4h-3.39l5.7-15.89h3.29c0,.1,5.67,15.79,5.7,15.89Zm2.64-28.38c-5.27.37-3.52-1.18-4.72-5.11h-5.31l-.94,4.36c-.09.5-.64.75-1.64.75-.84-.07-3.74.31-3.63-.8,0-.65,5.41-22.83,5.52-23.51.11-1,1.23-1.24,2.21-1.23,1.16.07,4.33-.36,4.5,1L163,238.37C163.21,239.45,163,239.78,161.54,239.82Zm-5.89-69.42a5.06,5.06,0,0,1,5.11,5V196c-.64,7.79-11.68,5.82-10.22-1.82v-11.1C150.73,178.9,149,170.36,155.65,170.4Zm-5.11-15.22v-9.31a49.87,49.87,0,0,0,10.22.18v9.13C160.85,161.64,150.49,161.71,150.54,155.18Zm20.18,113h-6.56V252.31h5.93c5-.7,6.77,5.81,3.35,7.52C178,261.17,176.58,269,170.72,268.2Zm7.07-51.11c.43,2.65-3.15,1.5-4.54,1.73v19.83c.18,1.32-2.45,1.2-3.58,1.17q-2.1,0-2.1-1.17V218.82c-3.91-.17-6,1.25-4.86-4.12-.41-.84,13.78-.26,14-.42C178.08,214.29,177.73,216.1,177.79,217.09Zm-1.71-20.9a5.07,5.07,0,0,1-5.1-5.06c-.13-4-.68-10.52,5.1-10.52a5.08,5.08,0,0,1,5.11,5.06C181.32,189.7,181.86,196.19,176.08,196.19ZM171,165.52V144.88a4.4,4.4,0,0,1,.06-.73,50.85,50.85,0,0,0,8.17-3.23c3.78,1.6,1.33,21.53,2,24.6C181.29,172,170.92,172.05,171,165.52Zm14.75,73.11c.35,1.72-6,1.68-5.67,0V215.48c-.19-1.35,2.47-1.23,3.61-1.2,1.38,0,2.06.4,2.06,1.2ZM177,133.23c-24.54,14-58.48-2.45-62.51-30.47C109,75.83,133.66,49.16,161,52.64,202.83,56.61,214.11,113.55,177,133.23ZM205.14,237c-6.75,7.11-17.19,2.13-16.19-9.84q0-13,9.29-13C209.05,213.46,209.21,230.75,205.14,237Zm23.16-.33c.08,2.23.28,3.44-2.78,3.2-.92,0-1.54-.14-2-1-.84-1.66-7.57-13.08-7.86-14.66l-.18.11c.52,1.71.21,12.48.28,14.4,0,.78-.69,1.16-2.09,1.16-1.16.07-3.19,0-3-1.16V215.44c-.16-1.52,4.46-1.71,4.9-.14,1.11,2.21,7.09,12.41,7.73,14.65l.14-.07c-.52-2.11-.21-12.18-.29-14.44-.21-1.65,5.32-1.64,5.11,0Zm4.16-69.81c-2.07,1.64-5.77,7.27-8.72,4.05l-34.25-36.58a50.63,50.63,0,0,0,8.15-8.66l18.86,20.14,15.91,17A3,3,0,0,1,232.46,166.81Z"/><path class="cls-7" d="M115.2,179.31c-.26-1.32-.47-2.72-.65-4.19h-.27c-.27,3-2.43,12.8-3,15.89h6.36Z"/><path class="cls-7" d="M38.44,175.82c-1.3-2.35-4.83-1.79-7.09-1.84v24.41c2.71.05,6.54.41,7.62-2.76C40.65,192.06,40.89,179.13,38.44,175.82Z"/><path class="cls-7" d="M154.23,220h-.17c-.18,1.93-1.56,8.23-1.94,10.21h4.09C155.81,228.15,154.41,221.93,154.23,220Z"/><path class="cls-7" d="M200.33,219.64c-4.8-2.94-6,3.31-5.74,7.47-.27,4.17.93,10.47,5.74,7.52C202.6,231.26,202.61,223,200.33,219.64Z"/></g></g></svg>