<svg id="Layer_1" data-name="Layer 1" xmlns="http://www.w3.org/2000/svg" xmlns:xlink="http://www.w3.org/1999/xlink" viewBox="0 0 250 310"><defs><style>.cls-1{fill:none;}.cls-2{clip-path:url(#clip-path);}.cls-3{opacity:0.1;}.cls-4{fill:#d1d3d4;}.cls-5{clip-path:url(#clip-path-2);}.cls-6{fill:#5b6c83;opacity:0.3;}.cls-7{fill:#566c85;}</style><clipPath id="clip-path"><rect class="cls-1" x="-305.85" y="-2601.13" width="961.71" height="1895.2"/></clipPath><clipPath id="clip-path-2"><rect class="cls-1" x="-305.45" y="-705.91" width="961.71" height="173.41"/></clipPath></defs><g class="cls-2"><g class="cls-3"><path class="cls-4" d="M223.76-439.63A58.81,58.81,0,0,0,253-490.35v-68.31a58.8,58.8,0,0,0-29.22-50.73l-58.53-34A58.51,58.51,0,0,0,138-651.2a58.61,58.61,0,0,0,7-27.75v-68.31A58.81,58.81,0,0,0,115.75-798l-58.53-34a58.63,58.63,0,0,0-27.29-7.86,58.63,58.63,0,0,0,6.64-27v-68.31a58.62,58.62,0,0,0-7.23-28.15,58.51,58.51,0,0,0,27.48-7.86l58.54-34a58.83,58.83,0,0,0,29.21-50.73v-68.31a58.57,58.57,0,0,0-6.71-27.17,58.54,58.54,0,0,0,27-7.84l58.54-33.95a58.83,58.83,0,0,0,29.21-50.73v-68.31a58.84,58.84,0,0,0-29.21-50.73l-58.54-33.95a58.5,58.5,0,0,0-27.17-7.85,58.54,58.54,0,0,0,6.92-27.58v-68.31a58.83,58.83,0,0,0-29.21-50.73l-58.54-34a57.45,57.45,0,0,0-5.11-2.64,40.8,40.8,0,0,1-15.32-27.79c.12-1.52.18-3,.18-4.58v-68.31q0-2.09-.15-4.14a40.79,40.79,0,0,1,18.78-29.86c.54-.29,1.08-.6,1.62-.91l58.54-34,1.09-.66a40.75,40.75,0,0,1,39.27.81l58.53,34a40.75,40.75,0,0,1,20.25,35.15v69.66a9,9,0,0,0,9,9,9,9,0,0,0,9-9v-69.66a58.8,58.8,0,0,0-29.22-50.72l-58.53-34a58.65,58.65,0,0,0-27-7.84,58.55,58.55,0,0,0,6.86-27.47v-68.31a58.57,58.57,0,0,0-6.71-27.17,58.54,58.54,0,0,0,27-7.84l58.54-34a58.83,58.83,0,0,0,29.21-50.73v-68.31a58.83,58.83,0,0,0-29.21-50.73l-58.54-34a58.53,58.53,0,0,0-27.08-7.84,58.58,58.58,0,0,0,6.83-27.41v-68.31a58.58,58.58,0,0,0-6.71-27.18,58.53,58.53,0,0,0,27-7.83l58.54-34a58.81,58.81,0,0,0,29.21-50.72v-68.31a58.81,58.81,0,0,0-29.21-50.73l-58.54-34a58.62,58.62,0,0,0-27.26-7.85,58.61,58.61,0,0,0,7-27.75v-68.31A58.83,58.83,0,0,0,115.36-2680L56.82-2714A58.77,58.77,0,0,0-2-2714L-60.56-2680a58.58,58.58,0,0,0-20.36,19.79A58.71,58.71,0,0,0-100.65-2679L-159.18-2713a9,9,0,0,0-12.3,3.27,9,9,0,0,0,3.27,12.3l58.53,34a40.76,40.76,0,0,1,20,30.84c-.06,1.1-.1,2.21-.1,3.32V-2561c0,1.51.07,3,.18,4.51a40.78,40.78,0,0,1-15.49,28.54q-2.52,1.15-4.94,2.55l-58.53,34q-2.4,1.39-4.64,3a40.76,40.76,0,0,1-35.8-2.45l-58.53-34A40.78,40.78,0,0,1-287.78-2560v-69.66a9,9,0,0,0-9-9,9,9,0,0,0-9,9V-2560a58.85,58.85,0,0,0,29.22,50.73l58.53,33.95a58.62,58.62,0,0,0,26.76,7.83,58.58,58.58,0,0,0-6.51,26.78v68.31a58.57,58.57,0,0,0,6.71,27.17,58.65,58.65,0,0,0-27,7.83l-58.53,34a58.82,58.82,0,0,0-29.22,50.73v68.31a58.82,58.82,0,0,0,29.22,50.72l58.53,34a58.56,58.56,0,0,0,27.08,7.84,58.7,58.7,0,0,0-6.83,27.41v68.31a58.54,58.54,0,0,0,6.71,27.17,58.54,58.54,0,0,0-27,7.84l-58.53,34a58.84,58.84,0,0,0-29.22,50.73v68.31a58.84,58.84,0,0,0,29.22,50.73l58.53,34a58.62,58.62,0,0,0,26.91,7.84,58.49,58.49,0,0,0-6.66,27.07v68.31a58.57,58.57,0,0,0,6.71,27.17,58.54,58.54,0,0,0-27,7.84l-58.53,34a58.84,58.84,0,0,0-29.22,50.73v68.31a58.85,58.85,0,0,0,29.22,50.73l58.53,34a58.54,58.54,0,0,0,27.17,7.85,58.66,58.66,0,0,0-6.92,27.58v68.31a58.54,58.54,0,0,0,6.71,27.17,58.54,58.54,0,0,0-27,7.84l-58.53,33.95a58.84,58.84,0,0,0-29.22,50.73v68.31a58.84,58.84,0,0,0,29.22,50.73l58.53,34a58.55,58.55,0,0,0,27.48,7.86,58.73,58.73,0,0,0-7.23,28.15v68.31a58.84,58.84,0,0,0,28.2,50.12,8.81,8.81,0,0,0,1.77,1.35l58.53,34a40.79,40.79,0,0,1,20,30.84c-.06,1.11-.1,2.21-.1,3.32v68.31c0,1.51.07,3,.18,4.51a40.76,40.76,0,0,1-15.49,28.54q-2.52,1.15-4.94,2.56l-58.53,34q-2.4,1.39-4.64,3a40.76,40.76,0,0,1-35.8-2.45l-58.53-33.95a40.78,40.78,0,0,1-20.25-35.16V-747.6a9,9,0,0,0-9-9,9,9,0,0,0-9,9v69.65a58.81,58.81,0,0,0,29.22,50.73l58.53,34a58.5,58.5,0,0,0,26.76,7.83,58.58,58.58,0,0,0-6.51,26.78v68.31a58.57,58.57,0,0,0,6.71,27.17,58.54,58.54,0,0,0-27,7.84l-58.53,33.95a58.82,58.82,0,0,0-29.22,50.73v68.31a58.82,58.82,0,0,0,29.22,50.72l58.53,34a58.53,58.53,0,0,0,27.08,7.84,58.7,58.7,0,0,0-6.83,27.41v68.31a58.54,58.54,0,0,0,6.71,27.17,58.54,58.54,0,0,0-27,7.84l-58.53,33.95A58.85,58.85,0,0,0-305.38,5.58V73.89a58.84,58.84,0,0,0,29.22,50.73l58.53,33.95a58.62,58.62,0,0,0,26.91,7.84,58.52,58.52,0,0,0-6.66,27.07v68.31A58.57,58.57,0,0,0-190.67,289a58.54,58.54,0,0,0-27,7.84l-58.53,33.95a58.84,58.84,0,0,0-29.22,50.73v68.31a58.85,58.85,0,0,0,29.22,50.73l58.53,34a58.54,58.54,0,0,0,27.17,7.85,58.66,58.66,0,0,0-6.92,27.58v68.31a58.54,58.54,0,0,0,6.71,27.17,58.54,58.54,0,0,0-27,7.84l-58.53,33.95a58.85,58.85,0,0,0-29.22,50.73v68.31a58.84,58.84,0,0,0,29.22,50.73l58.53,33.95a58.67,58.67,0,0,0,27.48,7.87,58.55,58.55,0,0,0-7.23,28.14v68.31a58.84,58.84,0,0,0,29.22,50.73l58.53,34a58.59,58.59,0,0,0,29.43,7.9,58.55,58.55,0,0,0,29.42-7.9l58.53-34A58.81,58.81,0,0,0,37,1015.21V946.9a58.55,58.55,0,0,0-7.23-28.14,58.64,58.64,0,0,0,27.48-7.87l58.54-33.95A58.83,58.83,0,0,0,145,826.21V757.9a58.57,58.57,0,0,0-6.71-27.17,58.54,58.54,0,0,0,27-7.84l58.54-33.95A58.83,58.83,0,0,0,253,638.21V569.9a58.83,58.83,0,0,0-29.22-50.73l-58.53-33.95a58.62,58.62,0,0,0-27.17-7.85A58.54,58.54,0,0,0,145,449.79V381.48a58.81,58.81,0,0,0-29.22-50.73L57.22,296.8a57.45,57.45,0,0,0-5.11-2.64,40.8,40.8,0,0,1-15.32-27.79c.12-1.51.18-3,.18-4.58V193.48q0-2.08-.15-4.14A40.79,40.79,0,0,1,55.6,159.48c.54-.29,1.08-.6,1.62-.91l58.54-33.95,1.09-.66a40.75,40.75,0,0,1,39.27.81l58.53,34a40.76,40.76,0,0,1,20.25,35.16v69.65a9,9,0,0,0,18,0V193.89a58.8,58.8,0,0,0-29.22-50.73l-58.53-34a58.65,58.65,0,0,0-27-7.84A58.55,58.55,0,0,0,145,73.89V5.58a58.57,58.57,0,0,0-6.71-27.17,58.54,58.54,0,0,0,27-7.84l58.54-33.95A58.83,58.83,0,0,0,253-114.11v-68.31a58.83,58.83,0,0,0-29.22-50.73l-58.53-34a58.53,58.53,0,0,0-27.08-7.84A58.58,58.58,0,0,0,145-302.35v-68.31a58.51,58.51,0,0,0-6.71-27.17,58.66,58.66,0,0,0,27-7.84ZM48.19-816.37l58.53,34A40.78,40.78,0,0,1,127-747.26v68.31a40.78,40.78,0,0,1-20.25,35.16L48.19-609.84a40.72,40.72,0,0,1-40.79,0l-58.53-33.95a40.79,40.79,0,0,1-20-30.84c.07-1.1.1-2.21.1-3.32v-68.31c0-1.51-.06-3-.18-4.51a40.81,40.81,0,0,1,17.53-30c.84-.43,1.68-.88,2.5-1.36l58.54-34q1.34-.78,2.61-1.62a40.66,40.66,0,0,1,17.83-4.11A40.61,40.61,0,0,1,48.19-816.37ZM18.76-110.14a40.8,40.8,0,0,1-17,29.24Q0-80.06-1.63-79.1L-60.16-45.15c-1,.59-2,1.21-3,1.86a40.78,40.78,0,0,1-34.13,0c-1-.65-2-1.27-3-1.86L-158.78-79.1q-1.65-1-3.36-1.8a40.77,40.77,0,0,1-17.24-33.21v-68.31a40.77,40.77,0,0,1,18.81-34.26c.6-.32,1.2-.65,1.79-1l58.54-34c.47-.27.93-.55,1.4-.84A40.63,40.63,0,0,1-80.2-257a40.66,40.66,0,0,1,18.64,4.53c.46.29.93.57,1.4.84l58.53,34c.59.34,1.19.67,1.79,1a40.81,40.81,0,0,1,18.6,30.29c-.09,1.32-.14,2.64-.14,4v68.31C18.62-112.78,18.67-111.46,18.76-110.14ZM18.7,266.34A40.84,40.84,0,0,1,1.73,295q-1.69.84-3.36,1.8l-58.53,33.95c-1,.59-2,1.21-3,1.86a40.78,40.78,0,0,1-34.13,0c-1-.65-2-1.27-3-1.86l-58.53-33.95q-1.65-1-3.36-1.8a40.77,40.77,0,0,1-17.24-33.21V193.48a40.76,40.76,0,0,1,16.82-32.9q1.92-.93,3.78-2l58.54-33.95c1.18-.69,2.33-1.41,3.45-2.17A40.57,40.57,0,0,1-80.2,118.9a40.52,40.52,0,0,1,16.58,3.55c1.13.76,2.28,1.48,3.46,2.17l58.53,33.95q1.86,1.08,3.78,2A40.78,40.78,0,0,1,18.73,189.3q-.18,2.28-.18,4.59v68.3C18.55,263.58,18.6,265,18.7,266.34Zm.06,375.84a40.8,40.8,0,0,1-17,29.24q-1.69.84-3.36,1.8l-58.53,33.95c-1,.59-2,1.21-3,1.86a40.78,40.78,0,0,1-34.13,0c-1-.65-2-1.27-3-1.86l-58.53-33.95q-1.65-1-3.36-1.8a40.77,40.77,0,0,1-17.24-33.21V569.9a40.78,40.78,0,0,1,20.25-35.16l58.53-33.95a40.62,40.62,0,0,1,20.4-5.47,40.61,40.61,0,0,1,20.39,5.47l58.53,33.95a40.79,40.79,0,0,1,20,31.19c-.09,1.32-.14,2.64-.14,4v68.31C18.62,639.54,18.67,640.86,18.76,642.18ZM9.16-232.3l-1.41-.85-58.53-34c-.59-.34-1.19-.67-1.79-1a40.77,40.77,0,0,1-18.59-30.29c.09-1.32.13-2.64.13-4v-68.31c0-1.33,0-2.66-.13-4a40.79,40.79,0,0,1,17-29.24q1.71-.84,3.36-1.8l58.54-34c1-.58,2-1.21,3-1.85a40.68,40.68,0,0,1,17.07-3.77,40.63,40.63,0,0,1,17.06,3.77c1,.64,2,1.27,3,1.85l58.53,34q1.66,1,3.36,1.8A40.77,40.77,0,0,1,127-370.66v68.31a40.74,40.74,0,0,1-18.81,34.25c-.6.33-1.2.66-1.79,1l-58.53,34c-.47.28-.94.56-1.4.85A40.73,40.73,0,0,1,9.16-232.3Zm117.41-823.54a40.78,40.78,0,0,1-20.25,35.16L47.79-986.73a40.72,40.72,0,0,1-40.79,0l-58.53-33.95a40.78,40.78,0,0,1-20-31.19c.09-1.32.13-2.64.13-4v-68.31c0-1.33,0-2.65-.13-4a40.79,40.79,0,0,1,17-29.24q1.71-.84,3.36-1.8l58.54-33.95q1.51-.89,3-1.86a40.82,40.82,0,0,1,17.07-3.76A40.77,40.77,0,0,1,44.46-1195c1,.65,2,1.27,3,1.86L106-1159.16q1.66,1,3.36,1.8a40.77,40.77,0,0,1,17.24,33.21ZM-71.56-2256.68a40.79,40.79,0,0,1,17-29.24q1.71-.84,3.36-1.8l58.54-34c1-.59,2-1.21,3-1.85a40.68,40.68,0,0,1,17.07-3.77,40.63,40.63,0,0,1,17.06,3.77c1,.64,2,1.26,3,1.85l58.53,34q1.66,1,3.36,1.8a40.77,40.77,0,0,1,17.24,33.21v68.31a40.74,40.74,0,0,1-18.81,34.25c-.6.33-1.2.66-1.79,1l-58.53,34c-.47.28-.94.56-1.4.85a40.73,40.73,0,0,1-37.28,0l-1.4-.85-58.54-34c-.59-.34-1.19-.67-1.79-1a40.73,40.73,0,0,1-18.59-30.29c.09-1.31.13-2.64.13-4v-68.31C-71.43-2254-71.47-2255.37-71.56-2256.68Zm9.6,122.16c.46.29.93.57,1.4.84l58.53,34c.59.34,1.19.67,1.79,1a40.81,40.81,0,0,1,18.6,30.29c-.09,1.32-.14,2.64-.14,4v68.31c0,1.33.05,2.65.14,4a40.8,40.8,0,0,1-17,29.24q-1.7.84-3.36,1.8l-58.53,34c-1,.59-2,1.21-3,1.86a40.78,40.78,0,0,1-34.13,0q-1.45-1-3-1.86l-58.54-34q-1.65-1-3.36-1.8a40.77,40.77,0,0,1-17.24-33.21v-68.31A40.77,40.77,0,0,1-161-2098.73c.6-.32,1.2-.65,1.79-1l58.54-34c.47-.27.93-.55,1.39-.84A40.7,40.7,0,0,1-80.6-2139,40.63,40.63,0,0,1-62-2134.52ZM-80.6-1763.15A40.52,40.52,0,0,1-64-1759.6c1.13.76,2.28,1.48,3.46,2.17l58.53,34q1.86,1.08,3.78,2a40.79,40.79,0,0,1,16.59,28.72c-.12,1.52-.19,3-.19,4.58v68.31c0,1.39.05,2.77.15,4.15a40.84,40.84,0,0,1-17,28.66q-1.7.84-3.36,1.8l-58.53,34c-1,.59-2,1.21-3,1.86a40.78,40.78,0,0,1-34.13,0q-1.45-1-3-1.86l-58.54-34q-1.65-1-3.36-1.8a40.77,40.77,0,0,1-17.24-33.21v-68.31a40.76,40.76,0,0,1,16.82-32.9q1.92-.93,3.78-2l58.54-34c1.18-.69,2.33-1.41,3.45-2.18A40.72,40.72,0,0,1-80.6-1763.15Zm0,376.42a40.61,40.61,0,0,1,20.39,5.47l58.53,34a40.79,40.79,0,0,1,20,31.19c-.09,1.32-.14,2.64-.14,4v68.31c0,1.33.05,2.65.14,4a40.8,40.8,0,0,1-17,29.24q-1.7.84-3.36,1.8l-58.53,33.95c-1,.59-2,1.21-3,1.86a40.78,40.78,0,0,1-34.13,0q-1.45-1-3-1.86l-58.54-33.95q-1.65-1-3.36-1.8a40.77,40.77,0,0,1-17.24-33.21v-68.31a40.78,40.78,0,0,1,20.25-35.16l58.53-34A40.62,40.62,0,0,1-80.6-1386.73Zm216,0a40.61,40.61,0,0,1,20.39,5.47l58.53,34a40.78,40.78,0,0,1,20.25,35.16v68.31a40.78,40.78,0,0,1-20.25,35.16l-58.53,34a40.74,40.74,0,0,1-37.46,1.71q-1.45-1-3-1.86l-58.54-33.95q-1.65-1-3.36-1.8a40.79,40.79,0,0,1-17-29.24c.09-1.32.13-2.64.13-4v-68.31c0-1.33,0-2.65-.13-4a40.78,40.78,0,0,1,20-31.19l58.53-34A40.62,40.62,0,0,1,135.4-1386.73ZM42.64-1572.19c1.52,1.09,3.09,2.11,4.73,3.06l58.53,34a9,9,0,0,0,3,1.07,40.77,40.77,0,0,1,17.7,33.54v68.31a40.78,40.78,0,0,1-20.25,35.16l-58.53,33.95a40.72,40.72,0,0,1-40.79,0l-58.53-33.95a40.78,40.78,0,0,1-20-31.19c.09-1.32.13-2.64.13-4v-68.31c0-1.33,0-2.65-.13-4a40.79,40.79,0,0,1,17-29.24q1.71-.84,3.36-1.8l58.54-34q1.51-.88,3-1.86a40.66,40.66,0,0,1,17.07-3.76A40.72,40.72,0,0,1,42.64-1572.19Zm83.93-236a40.75,40.75,0,0,1-19,34.4l-1.63.91-58.53,34c-.37.21-.73.43-1.09.65a40.75,40.75,0,0,1-35.47,1.11c-1.12-.76-2.27-1.48-3.45-2.17l-58.54-34q-1.86-1.08-3.78-2a40.76,40.76,0,0,1-16.6-28.93c.09-1.32.13-2.64.13-4v-68.31c0-1.33,0-2.65-.13-4a40.79,40.79,0,0,1,17-29.24q1.71-.84,3.36-1.8l58.54-34q1.51-.88,3-1.86A40.82,40.82,0,0,1,27.4-1951a40.77,40.77,0,0,1,17.06,3.76c1,.65,2,1.27,3,1.86l58.53,34q1.66,1,3.36,1.8a40.77,40.77,0,0,1,17.24,33.21Zm29.22-325.42,58.53,33.95a40.78,40.78,0,0,1,20.25,35.16v68.31A40.78,40.78,0,0,1,214.32-1961l-58.53,34a40.74,40.74,0,0,1-37.46,1.71q-1.45-1-3-1.86l-58.54-34q-1.65-1-3.36-1.8a40.79,40.79,0,0,1-17-29.24c.09-1.32.13-2.64.13-4v-68.31c0-1.33,0-2.65-.13-4A40.77,40.77,0,0,1,55-2098.73c.6-.32,1.2-.65,1.79-1l58.54-34c.47-.27.93-.55,1.39-.84A40.7,40.7,0,0,1,135.4-2139,40.61,40.61,0,0,1,155.79-2133.58ZM135.4-2515.3a40.62,40.62,0,0,1,20.39,5.48l58.53,34a40.77,40.77,0,0,1,20.25,35.16v68.31a40.75,40.75,0,0,1-20.25,35.15l-58.53,34a40.74,40.74,0,0,1-37.46,1.7c-1-.64-2-1.26-3-1.85l-58.54-34q-1.65-1-3.36-1.8a40.79,40.79,0,0,1-17-29.24c.09-1.31.13-2.64.13-4v-68.31c0-1.33,0-2.66-.13-4a40.75,40.75,0,0,1,20-31.19l58.53-34A40.63,40.63,0,0,1,135.4-2515.3ZM-51.53-2664.47l58.53-34a40.62,40.62,0,0,1,20.4-5.47,40.61,40.61,0,0,1,20.39,5.47l58.53,34a40.78,40.78,0,0,1,20.25,35.16V-2561a40.78,40.78,0,0,1-20.25,35.16l-58.53,34a40.72,40.72,0,0,1-40.79,0l-58.53-34a40.81,40.81,0,0,1-20-30.84c.07-1.11.1-2.21.1-3.32v-68.31c0-1.51-.06-3-.18-4.51A40.8,40.8,0,0,1-51.53-2664.47Zm-128.25,223.76a40.8,40.8,0,0,1,15.67-32.06c1.67-.77,3.32-1.61,4.93-2.55l58.53-33.95c1.61-.93,3.15-1.94,4.65-3a40.56,40.56,0,0,1,15.4-3,40.62,40.62,0,0,1,20.39,5.48l58.53,34a40.76,40.76,0,0,1,20,31.19c-.09,1.31-.14,2.64-.14,4v68.31c0,1.32.05,2.65.14,4a40.8,40.8,0,0,1-17,29.24q-1.7.84-3.36,1.8l-58.53,34c-1,.59-2,1.21-3,1.85a40.7,40.7,0,0,1-34.13,0c-1-.64-2-1.26-3-1.85l-58.54-34q-1.65-1-3.36-1.8a40.77,40.77,0,0,1-17.24-33.2ZM-209-2115.29l-58.53-34a40.75,40.75,0,0,1-20.25-35.15v-68.31a40.77,40.77,0,0,1,20.25-35.16l58.53-34a40.63,40.63,0,0,1,20.4-5.48,40.63,40.63,0,0,1,17.06,3.77c1,.64,2,1.26,3,1.85l58.53,34q1.66,1,3.36,1.8a40.8,40.8,0,0,1,17,29.24c-.09,1.31-.14,2.64-.14,4v68.31c0,1.32,0,2.65.14,4a40.77,40.77,0,0,1-18.6,30.29c-.6.33-1.2.66-1.79,1l-58.53,34c-.47.28-.94.56-1.4.85A40.76,40.76,0,0,1-209-2115.29Zm0,376.24-58.53-34a40.78,40.78,0,0,1-20.25-35.16v-68.31a40.78,40.78,0,0,1,20.25-35.16l58.53-33.95a40.62,40.62,0,0,1,20.4-5.47,40.77,40.77,0,0,1,17.06,3.76c1,.65,2,1.27,3,1.86l58.53,34q1.66,1,3.36,1.8a40.8,40.8,0,0,1,17,29.24c-.09,1.32-.14,2.64-.14,4v68.31c0,1.33,0,2.65.14,4a40.8,40.8,0,0,1-16.61,28.93q-1.92.93-3.78,2l-58.53,34c-1.18.69-2.33,1.41-3.46,2.17A40.7,40.7,0,0,1-209-1739Zm0,375.9-58.53-33.95a40.78,40.78,0,0,1-20.25-35.16v-68.31a40.78,40.78,0,0,1,20.25-35.16l58.53-34a40.62,40.62,0,0,1,20.4-5.47,40.62,40.62,0,0,1,17.06,3.76c1,.65,2,1.27,3,1.86l58.53,34q1.66,1,3.36,1.8a40.8,40.8,0,0,1,17,29.24c-.09,1.32-.14,2.64-.14,4v68.31c0,1.33,0,2.65.14,4a40.79,40.79,0,0,1-20,31.19l-58.53,33.95A40.72,40.72,0,0,1-209-1363.15Zm0,376.42-58.53-33.95a40.78,40.78,0,0,1-20.25-35.16v-68.31a40.78,40.78,0,0,1,20.25-35.16l58.53-34a40.62,40.62,0,0,1,20.4-5.47,40.77,40.77,0,0,1,17.06,3.76c1,.65,2,1.27,3,1.86l58.53,33.95q1.66,1,3.36,1.8a40.8,40.8,0,0,1,17,29.24c-.09,1.32-.14,2.64-.14,4v68.31c0,1.33,0,2.65.14,4a40.79,40.79,0,0,1-20,31.19l-58.53,33.95A40.72,40.72,0,0,1-209-986.73Zm108,189-58.53-33.95a40.78,40.78,0,0,1-20.25-35.16v-68.31a40.78,40.78,0,0,1,20.25-35.16l58.53-34a40.62,40.62,0,0,1,20.4-5.47,40.61,40.61,0,0,1,20.39,5.47l58.53,34a40.78,40.78,0,0,1,20.25,35.16v68.31A40.77,40.77,0,0,1,.87-833.3c-.84.43-1.67.88-2.5,1.36l-58.53,34c-.89.52-1.76,1.07-2.62,1.63A40.76,40.76,0,0,1-101-797.73Zm-78.38,239.07a40.8,40.8,0,0,1,15.67-32.06c1.67-.77,3.32-1.61,4.93-2.55l58.53-34c1.61-.93,3.15-1.94,4.65-3a40.56,40.56,0,0,1,15.4-3,40.62,40.62,0,0,1,20.39,5.48l58.53,33.95a40.78,40.78,0,0,1,20,31.19c-.09,1.31-.14,2.64-.14,4v68.31c0,1.33.05,2.65.14,4a40.78,40.78,0,0,1-17,29.23c-1.13.57-2.25,1.17-3.36,1.81l-58.53,33.95c-1,.59-2,1.21-3,1.85a40.7,40.7,0,0,1-34.13,0c-1-.64-2-1.26-3-1.85l-58.53-33.95c-1.1-.64-2.22-1.24-3.36-1.81a40.77,40.77,0,0,1-17.24-33.2ZM-208.6-233.24l-58.53-34a40.75,40.75,0,0,1-20.25-35.15v-68.31a40.77,40.77,0,0,1,20.25-35.16l58.53-33.95a40.63,40.63,0,0,1,20.4-5.48,40.63,40.63,0,0,1,17.06,3.77c1,.64,2,1.27,3,1.85l58.53,34q1.66,1,3.36,1.8a40.8,40.8,0,0,1,17,29.24c-.09,1.31-.14,2.64-.14,4v68.31c0,1.33,0,2.65.14,4a40.77,40.77,0,0,1-18.6,30.28c-.6.33-1.2.66-1.79,1l-58.53,34c-.47.28-.94.56-1.4.85A40.76,40.76,0,0,1-208.6-233.24Zm0,376.24-58.53-33.95a40.78,40.78,0,0,1-20.25-35.16V5.58a40.78,40.78,0,0,1,20.25-35.16l58.53-33.95A40.62,40.62,0,0,1-188.2-69a40.77,40.77,0,0,1,17.06,3.76c1,.65,2,1.27,3,1.86l58.53,34c1.11.64,2.23,1.24,3.36,1.81a40.76,40.76,0,0,1,17,29.23c-.09,1.32-.14,2.64-.14,4V73.89c0,1.33,0,2.65.14,4a40.8,40.8,0,0,1-16.61,28.93q-1.92.93-3.78,2l-58.53,34c-1.18.69-2.34,1.41-3.46,2.18A40.73,40.73,0,0,1-208.6,143Zm0,375.9L-267.13,485a40.78,40.78,0,0,1-20.25-35.16V381.48a40.78,40.78,0,0,1,20.25-35.16l58.53-33.95a40.62,40.62,0,0,1,20.4-5.47,40.77,40.77,0,0,1,17.06,3.76c1,.65,2,1.27,3,1.86l58.53,34q1.66,1,3.36,1.8a40.8,40.8,0,0,1,17,29.24c-.09,1.32-.14,2.64-.14,4v68.31c0,1.33,0,2.65.14,4a40.79,40.79,0,0,1-20,31.19l-58.53,33.95A40.72,40.72,0,0,1-208.6,518.9Zm0,376.42-58.53-34a40.78,40.78,0,0,1-20.25-35.16V757.9a40.78,40.78,0,0,1,20.25-35.16l58.53-34a40.62,40.62,0,0,1,20.4-5.47,40.77,40.77,0,0,1,17.06,3.76c1,.65,2,1.27,3,1.86l58.53,33.95c1.11.64,2.23,1.24,3.36,1.81a40.76,40.76,0,0,1,17,29.23c-.09,1.32-.14,2.64-.14,4v68.31c0,1.33,0,2.65.14,4a40.79,40.79,0,0,1-20,31.19l-58.53,34A40.72,40.72,0,0,1-208.6,895.32ZM19,1015.21a40.78,40.78,0,0,1-20.25,35.16l-58.53,34a40.72,40.72,0,0,1-40.79,0l-58.53-34a40.78,40.78,0,0,1-20.25-35.16V946.9a40.78,40.78,0,0,1,20.25-35.16l58.53-34a40.62,40.62,0,0,1,20.4-5.47,40.61,40.61,0,0,1,20.39,5.47l58.53,34A40.78,40.78,0,0,1,19,946.9Zm108-189a40.78,40.78,0,0,1-20.25,35.16l-58.53,34a40.72,40.72,0,0,1-40.79,0l-58.53-34a40.78,40.78,0,0,1-20-31.19c.09-1.32.13-2.64.13-4V757.9c0-1.33,0-2.65-.13-4a40.75,40.75,0,0,1,17-29.23c1.14-.57,2.26-1.17,3.36-1.81L7.76,688.94q1.51-.88,3-1.86a40.61,40.61,0,0,1,34.13,0c1,.65,2,1.27,3,1.86l58.53,33.95c1.11.64,2.23,1.24,3.36,1.81A40.74,40.74,0,0,1,127,757.9Zm8.83-330.89a40.61,40.61,0,0,1,20.39,5.47l58.53,33.95A40.78,40.78,0,0,1,235,569.9v68.31a40.78,40.78,0,0,1-20.25,35.16l-58.53,34A40.74,40.74,0,0,1,118.73,709c-1-.65-2-1.27-3-1.86L57.22,673.22q-1.65-1-3.36-1.8a40.79,40.79,0,0,1-17-29.24c.09-1.32.13-2.64.13-4V569.9c0-1.33,0-2.65-.13-4a40.78,40.78,0,0,1,20-31.19l58.53-33.95A40.62,40.62,0,0,1,135.8,495.32ZM43,309.86a56.26,56.26,0,0,0,4.73,3.06l58.53,34a8.76,8.76,0,0,0,3,1.06A40.77,40.77,0,0,1,127,381.48v68.31A40.78,40.78,0,0,1,106.72,485L48.19,518.9a40.72,40.72,0,0,1-40.79,0L-51.13,485a40.78,40.78,0,0,1-20-31.19c.09-1.32.13-2.64.13-4V381.48c0-1.33,0-2.65-.13-4a40.79,40.79,0,0,1,17-29.24q1.71-.84,3.36-1.8l58.54-34q1.51-.88,3-1.86a40.67,40.67,0,0,1,32.31-.8ZM127,73.89a40.77,40.77,0,0,1-19,34.4l-1.63.91-58.53,34c-.37.21-.73.43-1.09.65a40.68,40.68,0,0,1-35.47,1.11c-1.12-.76-2.27-1.48-3.46-2.17L-50.78,108.8q-1.86-1.08-3.78-2a40.76,40.76,0,0,1-16.6-28.93c.09-1.32.13-2.64.13-4V5.58c0-1.33,0-2.65-.13-4a40.75,40.75,0,0,1,17-29.23c1.14-.57,2.26-1.17,3.36-1.81L7.76-63.38q1.51-.88,3-1.86A40.82,40.82,0,0,1,27.8-69a40.77,40.77,0,0,1,17.06,3.76c1,.65,2,1.27,3,1.86l58.53,34c1.11.64,2.23,1.24,3.36,1.81A40.74,40.74,0,0,1,127,5.58Zm29.22-325.42,58.53,33.95A40.78,40.78,0,0,1,235-182.42v68.31a40.78,40.78,0,0,1-20.25,35.16L156.19-45a40.74,40.74,0,0,1-37.46,1.71c-1-.65-2-1.27-3-1.86L57.22-79.1q-1.65-1-3.36-1.8a40.79,40.79,0,0,1-17-29.24c.09-1.32.13-2.64.13-4v-68.31c0-1.33,0-2.65-.13-4a40.77,40.77,0,0,1,18.59-30.29c.6-.32,1.2-.65,1.79-1l58.54-34c.47-.27.93-.55,1.4-.84A40.63,40.63,0,0,1,135.8-257,40.61,40.61,0,0,1,156.19-251.53Zm-37.46-168c-1-.64-2-1.26-3-1.85L57.22-455.34c-1.1-.64-2.22-1.24-3.36-1.81a40.77,40.77,0,0,1-17-29.23c.09-1.32.13-2.64.13-4v-68.31c0-1.33,0-2.66-.13-4a40.76,40.76,0,0,1,20-31.19l58.53-33.95a40.63,40.63,0,0,1,20.4-5.48,40.62,40.62,0,0,1,20.39,5.48l58.53,33.95A40.77,40.77,0,0,1,235-558.66v68.31a40.75,40.75,0,0,1-20.25,35.15l-58.53,34A40.74,40.74,0,0,1,118.73-419.54Z"/><path class="cls-4" d="M244,290.65a8.94,8.94,0,0,0-9,8.88v36.64a9,9,0,0,0,18,0V299.53A8.93,8.93,0,0,0,244,290.65Z"/><path class="cls-4" d="M181,281.47a9,9,0,0,0-18,0v36.35a9,9,0,0,0,18,0Z"/><path class="cls-4" d="M207.89,308.65a8.81,8.81,0,0,0,8.85-8.78v-9.45a8.85,8.85,0,0,0-17.7,0v9.45A8.82,8.82,0,0,0,207.89,308.65Z"/></g></g><g class="cls-5"><g class="cls-3"><path class="cls-4" d="M244,303.82a9,9,0,0,0-9,8.89v36.63a9,9,0,0,0,18,0V312.71A9,9,0,0,0,244,303.82Z"/><path class="cls-4" d="M181,294.64a9,9,0,0,0-18,0V331a9,9,0,0,0,18,0Z"/><path class="cls-4" d="M207.9,321.82a8.8,8.8,0,0,0,8.85-8.77v-9.46a8.85,8.85,0,0,0-17.7,0v9.46A8.8,8.8,0,0,0,207.9,321.82Z"/><path class="cls-4" d="M224.16,1455.6a58.82,58.82,0,0,0,29.22-50.73v-68.3a58.82,58.82,0,0,0-29.22-50.73l-58.53-34a58.69,58.69,0,0,0-27.27-7.85,58.62,58.62,0,0,0,7-27.75V1148a58.82,58.82,0,0,0-29.22-50.73l-58.53-34a58.58,58.58,0,0,0-27.3-7.86,58.52,58.52,0,0,0,6.65-27V960.08a58.63,58.63,0,0,0-7.24-28.15,58.55,58.55,0,0,0,27.49-7.86l58.53-34A58.85,58.85,0,0,0,145,839.39V771.08a58.54,58.54,0,0,0-6.71-27.17,58.57,58.57,0,0,0,27-7.84l58.53-34A58.85,58.85,0,0,0,253,651.39V583.08a58.84,58.84,0,0,0-29.22-50.73l-58.53-34a58.57,58.57,0,0,0-27.17-7.85A58.66,58.66,0,0,0,145,463V394.66a58.82,58.82,0,0,0-29.22-50.73L57.23,310c-1.67-1-3.38-1.85-5.11-2.64a40.77,40.77,0,0,1-15.33-27.79c.12-1.52.19-3.05.19-4.58V206.66c0-1.39,0-2.77-.15-4.15A40.73,40.73,0,0,1,55.6,172.66l1.63-.91,58.53-33.95,1.09-.66a40.73,40.73,0,0,1,39.27.81l58.54,34a40.78,40.78,0,0,1,20.25,35.16v69.66a9,9,0,0,0,18,0V207.06a58.85,58.85,0,0,0-29.22-50.73l-58.54-34a58.58,58.58,0,0,0-27-7.84A58.56,58.56,0,0,0,145,87.07V18.76a58.54,58.54,0,0,0-6.71-27.17,58.57,58.57,0,0,0,27-7.84L223.76-50.2A58.85,58.85,0,0,0,253-100.93v-68.31A58.84,58.84,0,0,0,223.76-220l-58.53-33.95a58.7,58.7,0,0,0-27.09-7.85A58.53,58.53,0,0,0,145-289.18v-68.31a58.57,58.57,0,0,0-6.71-27.17,58.57,58.57,0,0,0,27-7.84l58.53-33.95A58.82,58.82,0,0,0,253-477.18v-68.31a58.82,58.82,0,0,0-29.22-50.72l-58.53-34A58.69,58.69,0,0,0,138-638a58.54,58.54,0,0,0,7-27.75v-68.31a58.82,58.82,0,0,0-29.22-50.73l-58.53-34a58.77,58.77,0,0,0-58.85,0l-58.54,34A58.67,58.67,0,0,0-80.52-765a58.58,58.58,0,0,0-19.72-18.79l-58.53-34a9,9,0,0,0-12.31,3.27,9,9,0,0,0,3.27,12.3l58.54,34a40.77,40.77,0,0,1,20,30.84c-.06,1.1-.1,2.21-.1,3.32v68.31c0,1.51.07,3,.19,4.51a40.83,40.83,0,0,1-15.5,28.54c-1.67.77-3.32,1.62-4.93,2.55l-58.54,34q-2.4,1.4-4.64,3a40.74,40.74,0,0,1-35.79-2.45l-58.54-34a40.78,40.78,0,0,1-20.25-35.16v-69.66a9,9,0,0,0-9-9,9,9,0,0,0-9,9v69.66A58.85,58.85,0,0,0-276.16-614l58.53,33.95a58.66,58.66,0,0,0,26.76,7.83,58.51,58.51,0,0,0-6.51,26.77v68.31A58.63,58.63,0,0,0-190.67-450a58.65,58.65,0,0,0-27,7.84l-58.54,34a58.82,58.82,0,0,0-29.22,50.72v68.31a58.82,58.82,0,0,0,29.22,50.73l58.54,33.95a58.39,58.39,0,0,0,27.08,7.85,58.53,58.53,0,0,0-6.84,27.41v68.31a58.7,58.7,0,0,0,6.71,27.17,58.53,58.53,0,0,0-27,7.84l-58.54,34a58.82,58.82,0,0,0-29.22,50.73V87.07a58.85,58.85,0,0,0,29.22,50.73l58.54,33.95a58.41,58.41,0,0,0,26.9,7.83,58.69,58.69,0,0,0-6.66,27.08V275a58.7,58.7,0,0,0,6.71,27.17,58.53,58.53,0,0,0-27,7.84l-58.54,33.95a58.82,58.82,0,0,0-29.22,50.73V463a58.82,58.82,0,0,0,29.22,50.72l58.54,34a58.62,58.62,0,0,0,27.17,7.85,58.52,58.52,0,0,0-6.93,27.58v68.31a58.7,58.7,0,0,0,6.71,27.17,58.53,58.53,0,0,0-27,7.84l-58.54,34a58.82,58.82,0,0,0-29.22,50.73v68.31a58.85,58.85,0,0,0,29.22,50.73l58.54,34a58.48,58.48,0,0,0,27.48,7.86,58.63,58.63,0,0,0-7.24,28.15v68.31a58.8,58.8,0,0,0,28.21,50.11,9.17,9.17,0,0,0,1.76,1.36l58.54,34a40.77,40.77,0,0,1,20,30.84c-.06,1.1-.1,2.21-.1,3.32v68.31c0,1.51.07,3,.19,4.51a40.83,40.83,0,0,1-15.5,28.54q-2.5,1.15-4.94,2.55l-58.53,34q-2.4,1.4-4.64,3a40.74,40.74,0,0,1-35.79-2.45l-58.54-34A40.78,40.78,0,0,1-287,1217.28v-69.66a9,9,0,0,0-9-9,9,9,0,0,0-9,9v69.66A58.85,58.85,0,0,0-275.76,1268l58.53,34a58.66,58.66,0,0,0,26.76,7.83,58.55,58.55,0,0,0-6.51,26.78v68.3a58.71,58.71,0,0,0,6.71,27.18,58.72,58.72,0,0,0-27,7.83l-58.53,34A58.82,58.82,0,0,0-305,1524.57v68.3a58.82,58.82,0,0,0,29.22,50.73l58.53,34a58.57,58.57,0,0,0,27.09,7.84,58.56,58.56,0,0,0-6.84,27.41v68.31a58.7,58.7,0,0,0,6.71,27.17,58.61,58.61,0,0,0-27,7.84l-58.53,33.95A58.84,58.84,0,0,0-305,1900.81v68.31a58.85,58.85,0,0,0,29.22,50.73l58.53,34a58.62,58.62,0,0,0,26.91,7.84,58.62,58.62,0,0,0-6.66,27.07V2157a58.7,58.7,0,0,0,6.71,27.17,58.61,58.61,0,0,0-27,7.84L-275.76,2226A58.82,58.82,0,0,0-305,2276.71V2345a58.85,58.85,0,0,0,29.22,50.73l58.53,33.95a58.69,58.69,0,0,0,27.18,7.85,58.52,58.52,0,0,0-6.93,27.58v68.31a58.7,58.7,0,0,0,6.71,27.17,58.61,58.61,0,0,0-27,7.84l-58.53,34A58.84,58.84,0,0,0-305,2653.13v68.31a58.85,58.85,0,0,0,29.22,50.73l58.53,33.95a58.55,58.55,0,0,0,27.49,7.86,58.63,58.63,0,0,0-7.24,28.15v68.31a58.84,58.84,0,0,0,29.22,50.73l58.53,33.95A58.69,58.69,0,0,0-79.8,3003a58.72,58.72,0,0,0,29.43-7.9l58.53-33.95a58.85,58.85,0,0,0,29.22-50.73v-68.31A58.63,58.63,0,0,0,30.14,2814a58.55,58.55,0,0,0,27.49-7.86l58.53-33.95a58.85,58.85,0,0,0,29.22-50.73v-68.31a58.66,58.66,0,0,0-6.71-27.17,58.57,58.57,0,0,0,27-7.84l58.53-33.95a58.85,58.85,0,0,0,29.22-50.73v-68.31a58.84,58.84,0,0,0-29.22-50.73l-58.53-34a58.57,58.57,0,0,0-27.17-7.85,58.66,58.66,0,0,0,6.92-27.58v-68.31A58.82,58.82,0,0,0,116.16,2226L57.63,2192c-1.67-1-3.38-1.85-5.11-2.64a40.77,40.77,0,0,1-15.33-27.79c.12-1.52.19-3,.19-4.58v-68.31c0-1.39-.06-2.77-.15-4.14A40.73,40.73,0,0,1,56,2054.71l1.63-.91,58.53-34,1.09-.66a40.73,40.73,0,0,1,39.27.81l58.53,34a40.74,40.74,0,0,1,20.26,35.15v69.66a9,9,0,0,0,18,0v-69.66a58.85,58.85,0,0,0-29.22-50.73l-58.54-34a58.58,58.58,0,0,0-27-7.84,58.56,58.56,0,0,0,6.87-27.47v-68.31a58.66,58.66,0,0,0-6.71-27.17,58.57,58.57,0,0,0,27-7.84l58.53-34a58.85,58.85,0,0,0,29.22-50.73v-68.31a58.84,58.84,0,0,0-29.22-50.73l-58.53-33.95a58.7,58.7,0,0,0-27.09-7.85,58.53,58.53,0,0,0,6.84-27.41v-68.3a58.71,58.71,0,0,0-6.71-27.18,58.68,58.68,0,0,0,27-7.83ZM48.59,1078.86l58.54,34A40.78,40.78,0,0,1,127.38,1148v68.31a40.78,40.78,0,0,1-20.25,35.16l-58.54,34a40.71,40.71,0,0,1-40.78,0l-58.54-34a40.78,40.78,0,0,1-20-30.85c.06-1.1.1-2.2.1-3.31V1149c0-1.51-.07-3-.18-4.51a40.77,40.77,0,0,1,17.52-30c.84-.43,1.68-.88,2.51-1.36l58.53-34c.89-.52,1.76-1.07,2.62-1.63a40.68,40.68,0,0,1,38.21,1.37ZM19.16,1785.09a40.8,40.8,0,0,1-17,29.24q-1.69.84-3.36,1.8l-58.53,33.95c-1,.59-2,1.21-3,1.86a40.75,40.75,0,0,1-34.12,0c-1-.65-2-1.27-3-1.86l-58.53-33.95q-1.66-1-3.36-1.8A40.78,40.78,0,0,1-179,1781.12v-68.31a40.79,40.79,0,0,1,18.81-34.26q.9-.48,1.8-1l58.53-34c.47-.27.94-.55,1.4-.84a40.63,40.63,0,0,1,18.64-4.53,40.7,40.7,0,0,1,18.65,4.53c.46.29.92.57,1.39.84l58.53,34c.6.34,1.19.67,1.8,1a40.8,40.8,0,0,1,18.59,30.29c-.09,1.32-.14,2.64-.14,4v68.31C19,1782.45,19.07,1783.77,19.16,1785.09Zm-.06,376.48a40.73,40.73,0,0,1-17,28.65c-1.13.57-2.25,1.17-3.36,1.81L-59.76,2226c-1,.59-2,1.21-3,1.86a40.75,40.75,0,0,1-34.12,0c-1-.65-2-1.27-3-1.86L-158.37,2192c-1.11-.64-2.23-1.24-3.36-1.81A40.76,40.76,0,0,1-179,2157v-68.31a40.78,40.78,0,0,1,16.82-32.9c1.28-.62,2.55-1.29,3.79-2l58.53-34c1.18-.69,2.33-1.42,3.45-2.18a40.76,40.76,0,0,1,16.59-3.55,40.76,40.76,0,0,1,16.59,3.55c1.12.77,2.27,1.49,3.45,2.18l58.53,34c1.25.72,2.51,1.39,3.79,2a40.8,40.8,0,0,1,16.58,28.72c-.12,1.52-.19,3-.19,4.58v68.31C19,2158.81,19,2160.19,19.1,2161.57Zm.06,375.84a40.8,40.8,0,0,1-17,29.24q-1.69.84-3.36,1.8l-58.53,34c-1,.59-2,1.21-3,1.86a40.75,40.75,0,0,1-34.12,0c-1-.65-2-1.27-3-1.86l-58.53-34q-1.66-1-3.36-1.8A40.78,40.78,0,0,1-179,2533.44v-68.31A40.78,40.78,0,0,1-158.73,2430l58.54-33.95a40.61,40.61,0,0,1,20.39-5.47A40.61,40.61,0,0,1-59.41,2396L-.87,2430a40.81,40.81,0,0,1,20,31.19c-.09,1.32-.14,2.64-.14,4v68.31C19,2534.77,19.07,2536.09,19.16,2537.41Zm-9.6-874.48c-.46-.29-.93-.58-1.4-.85l-58.53-33.95c-.6-.35-1.19-.68-1.79-1a40.76,40.76,0,0,1-18.6-30.29c.09-1.31.14-2.64.14-4v-68.3c0-1.33,0-2.66-.14-4a40.82,40.82,0,0,1,17-29.24c1.14-.56,2.26-1.16,3.37-1.8l58.53-34c1-.59,2-1.21,3-1.85a40.51,40.51,0,0,1,34.13,0c1,.64,2,1.26,3,1.85l58.53,34q1.67,1,3.36,1.8a40.78,40.78,0,0,1,17.25,33.21v68.3a40.75,40.75,0,0,1-18.82,34.26c-.6.32-1.19.65-1.79,1l-58.53,33.95c-.47.28-.94.56-1.4.85A40.73,40.73,0,0,1,9.56,1662.93ZM127,839.39a40.78,40.78,0,0,1-20.25,35.16l-58.53,34a40.72,40.72,0,0,1-40.79,0l-58.54-34a40.81,40.81,0,0,1-20-31.19c.09-1.32.14-2.64.14-4V771.08c0-1.33,0-2.65-.14-4a40.8,40.8,0,0,1,17-29.24q1.7-.84,3.36-1.8l58.53-34c1-.59,2-1.21,3-1.86a40.61,40.61,0,0,1,34.13,0q1.46,1,3,1.86l58.54,34q1.65,1,3.36,1.8A40.8,40.8,0,0,1,127,771.08ZM-71.16-361.45a40.8,40.8,0,0,1,17-29.24c1.13-.56,2.25-1.16,3.36-1.81L7.76-426.45c1-.59,2-1.21,3-1.85a40.63,40.63,0,0,1,17.06-3.77,40.68,40.68,0,0,1,17.07,3.77c1,.64,2,1.26,3,1.85l58.54,33.95c1.1.65,2.22,1.25,3.36,1.81A40.79,40.79,0,0,1,127-357.49v68.31a40.75,40.75,0,0,1-18.82,34.26c-.6.32-1.19.65-1.78,1L47.84-220c-.47.27-.94.56-1.4.85a40.7,40.7,0,0,1-37.28,0c-.46-.28-.93-.57-1.4-.84l-58.53-33.95c-.59-.35-1.19-.68-1.79-1a40.76,40.76,0,0,1-18.6-30.29c.09-1.31.14-2.64.14-4v-68.31C-71-358.82-71.07-360.14-71.16-361.45Zm9.61,122.16c.46.29.92.57,1.39.84L-1.62-204.5c.59.35,1.18.68,1.79,1a40.8,40.8,0,0,1,18.59,30.29c-.09,1.32-.14,2.64-.14,4v68.31c0,1.33.05,2.65.14,4a40.76,40.76,0,0,1-17,29.23c-1.13.57-2.25,1.17-3.35,1.81L-60.16-32c-1,.59-2,1.21-3,1.86a40.75,40.75,0,0,1-34.12,0c-1-.65-2-1.27-3-1.86l-58.53-33.95c-1.11-.64-2.23-1.24-3.36-1.81a40.75,40.75,0,0,1-17.25-33.2v-68.31a40.79,40.79,0,0,1,18.81-34.26c.61-.32,1.2-.65,1.8-1l58.53-33.95c.47-.27.94-.56,1.4-.84a40.64,40.64,0,0,1,18.64-4.54A40.71,40.71,0,0,1-61.55-239.29ZM-80.2,132.07a40.76,40.76,0,0,1,16.59,3.55c1.12.76,2.27,1.49,3.45,2.18l58.54,33.95c1.24.72,2.5,1.38,3.78,2a40.8,40.8,0,0,1,16.58,28.72c-.12,1.52-.19,3.05-.19,4.58v68.31q0,2.08.15,4.14a40.73,40.73,0,0,1-17,28.66c-1.13.57-2.25,1.17-3.35,1.81l-58.54,33.95c-1,.59-2,1.21-3,1.86a40.72,40.72,0,0,1-34.12,0c-1-.64-2-1.26-3-1.85L-158.77,310c-1.11-.64-2.23-1.24-3.36-1.81A40.78,40.78,0,0,1-179.38,275V206.66a40.77,40.77,0,0,1,16.82-32.9c1.28-.63,2.55-1.29,3.79-2l58.53-33.95c1.18-.69,2.33-1.42,3.45-2.18A40.76,40.76,0,0,1-80.2,132.07Zm0,376.43A40.64,40.64,0,0,1-59.8,514l58.53,33.95a40.81,40.81,0,0,1,20,31.19c-.09,1.32-.14,2.64-.14,4v68.31c0,1.33.05,2.65.14,4a40.76,40.76,0,0,1-17,29.23c-1.13.57-2.25,1.17-3.35,1.81l-58.54,34c-1,.59-2,1.21-3,1.86a40.75,40.75,0,0,1-34.12,0c-1-.65-2-1.27-3-1.86l-58.53-34q-1.66-1-3.36-1.8a40.78,40.78,0,0,1-17.25-33.21V583.08a40.78,40.78,0,0,1,20.25-35.16L-100.59,514A40.61,40.61,0,0,1-80.2,508.5Zm216,0A40.64,40.64,0,0,1,156.2,514l58.53,33.95A40.78,40.78,0,0,1,235,583.08v68.31a40.78,40.78,0,0,1-20.25,35.16l-58.53,34a40.75,40.75,0,0,1-37.46,1.71c-1-.65-2-1.27-3-1.86l-58.53-34q-1.66-1-3.36-1.8a40.8,40.8,0,0,1-17-29.24c.09-1.32.14-2.64.14-4V583.08c0-1.33,0-2.65-.14-4a40.81,40.81,0,0,1,20-31.19L115.41,514A40.61,40.61,0,0,1,135.8,508.5ZM43,323q2.28,1.63,4.73,3.06l58.53,33.95a9.05,9.05,0,0,0,3,1.07A40.8,40.8,0,0,1,127,394.66V463a40.75,40.75,0,0,1-20.25,35.15l-58.53,34a40.77,40.77,0,0,1-40.79,0l-58.54-34a40.77,40.77,0,0,1-20-31.18c.09-1.32.14-2.64.14-4V394.66c0-1.33,0-2.66-.14-4a40.8,40.8,0,0,1,17-29.24q1.7-.84,3.36-1.8l58.53-34c1-.58,2-1.21,3-1.85A40.53,40.53,0,0,1,43,323ZM127,87.07a40.77,40.77,0,0,1-19,34.4c-.55.29-1.1.6-1.64.91l-58.53,34-1.09.66a40.73,40.73,0,0,1-35.46,1.11c-1.13-.76-2.28-1.49-3.46-2.17L-50.77,122c-1.24-.72-2.51-1.39-3.78-2A40.79,40.79,0,0,1-71.16,91c.09-1.32.14-2.64.14-4V18.76c0-1.33,0-2.65-.14-4a40.8,40.8,0,0,1,17-29.24q1.7-.84,3.36-1.8L7.76-50.2c1-.59,2-1.21,3-1.86A40.63,40.63,0,0,1,27.8-55.83a40.68,40.68,0,0,1,17.07,3.77q1.46,1,3,1.86l58.54,34q1.65,1,3.36,1.8A40.8,40.8,0,0,1,127,18.76ZM156.2-238.35l58.53,33.95A40.78,40.78,0,0,1,235-169.24v68.31a40.78,40.78,0,0,1-20.25,35.16L156.2-31.82a40.75,40.75,0,0,1-37.46,1.71c-1-.65-2-1.27-3-1.86L57.23-65.92c-1.11-.64-2.23-1.24-3.36-1.81A40.76,40.76,0,0,1,36.84-97c.09-1.32.14-2.64.14-4v-68.31c0-1.33,0-2.65-.14-4A40.8,40.8,0,0,1,55.43-203.5c.61-.32,1.2-.65,1.8-1l58.53-33.95c.47-.27.94-.56,1.4-.84a40.64,40.64,0,0,1,18.64-4.54A40.65,40.65,0,0,1,156.2-238.35ZM135.8-620.07a40.64,40.64,0,0,1,20.4,5.47l58.53,34A40.75,40.75,0,0,1,235-545.49v68.31A40.77,40.77,0,0,1,214.73-442L156.2-408.07a40.72,40.72,0,0,1-37.46,1.71c-1-.64-2-1.26-3-1.85l-58.53-34q-1.66-1-3.36-1.8a40.8,40.8,0,0,1-17-29.24c.09-1.31.14-2.64.14-4v-68.31c0-1.33,0-2.65-.14-4a40.77,40.77,0,0,1,20-31.19l58.54-34A40.61,40.61,0,0,1,135.8-620.07ZM-51.13-769.24l58.54-34a40.62,40.62,0,0,1,20.39-5.48,40.65,40.65,0,0,1,20.4,5.48l58.53,34A40.77,40.77,0,0,1,127-734.08v68.31a40.75,40.75,0,0,1-20.25,35.15l-58.53,34a40.77,40.77,0,0,1-40.79,0l-58.54-34a40.74,40.74,0,0,1-20-30.84c.06-1.1.1-2.2.1-3.31v-68.31c0-1.51-.07-3-.18-4.51A40.74,40.74,0,0,1-51.13-769.24ZM-179.38-545.49a40.79,40.79,0,0,1,15.67-32c1.68-.77,3.32-1.62,4.94-2.55L-100.24-614c1.6-.93,3.15-1.94,4.64-3a40.78,40.78,0,0,1,15.4-3,40.64,40.64,0,0,1,20.4,5.47l58.53,34a40.77,40.77,0,0,1,20,31.19c-.09,1.31-.14,2.63-.14,4v68.31c0,1.33.05,2.66.14,4A40.8,40.8,0,0,1,1.73-444c-1.13.56-2.25,1.16-3.35,1.8l-58.54,34c-1,.59-2,1.21-3,1.85a40.68,40.68,0,0,1-34.12,0c-1-.64-2-1.26-3-1.85l-58.53-34q-1.66-1-3.36-1.8a40.78,40.78,0,0,1-17.25-33.21Zm-29.21,325.42-58.54-34a40.77,40.77,0,0,1-20.25-35.16v-68.31a40.75,40.75,0,0,1,20.25-35.15l58.54-34a40.61,40.61,0,0,1,20.39-5.47,40.68,40.68,0,0,1,17.07,3.77c1,.64,2,1.26,3,1.85l58.54,33.95c1.1.65,2.22,1.25,3.36,1.81a40.79,40.79,0,0,1,17,29.24c-.09,1.31-.14,2.63-.14,4v68.31c0,1.33,0,2.66.14,4a40.76,40.76,0,0,1-18.6,30.29c-.6.32-1.19.65-1.78,1L-168.16-220c-.47.27-.94.56-1.4.85A40.72,40.72,0,0,1-208.59-220.07Zm0,376.25-58.54-33.95a40.78,40.78,0,0,1-20.25-35.16V18.76A40.78,40.78,0,0,1-267.13-16.4l58.54-33.95a40.62,40.62,0,0,1,20.39-5.48,40.68,40.68,0,0,1,17.07,3.77q1.45,1,3,1.86l58.54,34q1.65,1,3.36,1.8a40.79,40.79,0,0,1,17,29.24c-.09,1.32-.14,2.64-.14,4V87.07c0,1.33,0,2.65.14,4A40.78,40.78,0,0,1-105.84,120q-1.92.93-3.78,2l-58.54,34c-1.18.68-2.33,1.41-3.45,2.17A40.73,40.73,0,0,1-208.59,156.18Zm0,375.9-58.54-34A40.75,40.75,0,0,1-287.38,463V394.66a40.77,40.77,0,0,1,20.25-35.16l58.54-33.95a40.62,40.62,0,0,1,20.39-5.48,40.68,40.68,0,0,1,17.07,3.77c1,.64,2,1.27,3,1.85l58.54,34q1.65,1,3.36,1.8a40.79,40.79,0,0,1,17,29.24c-.09,1.31-.14,2.64-.14,4V463c0,1.33,0,2.65.14,4a40.77,40.77,0,0,1-20,31.18l-58.53,34A40.77,40.77,0,0,1-208.59,532.08Zm0,376.42-58.54-34a40.78,40.78,0,0,1-20.25-35.16V771.08a40.78,40.78,0,0,1,20.25-35.16L-208.59,702a40.61,40.61,0,0,1,20.39-5.47,40.66,40.66,0,0,1,17.07,3.76q1.45,1,3,1.86l58.54,34q1.65,1,3.36,1.8a40.79,40.79,0,0,1,17,29.24c-.09,1.32-.14,2.64-.14,4v68.31c0,1.33,0,2.65.14,4a40.81,40.81,0,0,1-20,31.19l-58.53,34A40.72,40.72,0,0,1-208.59,908.5Zm108,189-58.54-34a40.78,40.78,0,0,1-20.25-35.16V960.08a40.78,40.78,0,0,1,20.25-35.16L-100.59,891A40.61,40.61,0,0,1-80.2,885.5,40.64,40.64,0,0,1-59.8,891l58.53,33.95A40.78,40.78,0,0,1,19,960.08v68.31a40.8,40.8,0,0,1-17.7,33.54c-.84.43-1.68.88-2.51,1.36l-58.53,34c-.89.52-1.76,1.06-2.62,1.62A40.71,40.71,0,0,1-100.59,1097.5ZM-179,1336.57a40.81,40.81,0,0,1,15.67-32.06q2.52-1.15,4.93-2.55l58.54-34c1.6-.93,3.15-1.94,4.64-3a40.6,40.6,0,0,1,15.4-3,40.71,40.71,0,0,1,20.39,5.47l58.54,34a40.77,40.77,0,0,1,20,31.19c-.09,1.31-.14,2.64-.14,4v68.3c0,1.33.05,2.66.14,4a40.8,40.8,0,0,1-17,29.24q-1.69.84-3.36,1.8l-58.53,34c-1,.59-2,1.21-3,1.85a40.68,40.68,0,0,1-34.12,0c-1-.64-2-1.26-3-1.85l-58.53-34q-1.66-1-3.36-1.8A40.78,40.78,0,0,1-179,1404.87ZM-208.19,1662l-58.54-34A40.76,40.76,0,0,1-287,1592.87v-68.3a40.76,40.76,0,0,1,20.25-35.16l58.54-34A40.71,40.71,0,0,1-187.8,1450a40.71,40.71,0,0,1,17.07,3.77c1,.64,2,1.26,3,1.85l58.53,34q1.67,1,3.36,1.8a40.8,40.8,0,0,1,17,29.24c-.09,1.31-.14,2.64-.14,4v68.3c0,1.33,0,2.66.14,4a40.76,40.76,0,0,1-18.6,30.29c-.6.32-1.19.65-1.79,1l-58.53,33.95c-.47.28-.94.56-1.4.85A40.74,40.74,0,0,1-208.19,1662Zm0,376.24-58.54-34A40.78,40.78,0,0,1-287,1969.12v-68.31a40.78,40.78,0,0,1,20.25-35.16l58.54-34a40.61,40.61,0,0,1,20.39-5.47,40.7,40.7,0,0,1,17.07,3.76q1.46,1,3,1.86l58.53,34q1.67,1,3.36,1.8a40.8,40.8,0,0,1,17,29.24c-.09,1.32-.14,2.64-.14,4v68.31c0,1.33,0,2.65.14,4a40.78,40.78,0,0,1-16.6,28.93c-1.28.62-2.54,1.29-3.79,2l-58.53,34c-1.18.69-2.33,1.41-3.45,2.17A40.73,40.73,0,0,1-208.19,2038.23Zm0,375.9-58.54-34A40.78,40.78,0,0,1-287,2345v-68.31a40.78,40.78,0,0,1,20.25-35.16l58.54-34a40.62,40.62,0,0,1,20.39-5.48,40.71,40.71,0,0,1,17.07,3.77q1.46,1,3,1.86l58.53,33.95q1.67,1,3.36,1.8a40.8,40.8,0,0,1,17,29.24c-.09,1.32-.14,2.64-.14,4V2345c0,1.33,0,2.65.14,4a40.81,40.81,0,0,1-20,31.19l-58.54,34A40.71,40.71,0,0,1-208.19,2414.13Zm0,376.42-58.54-34A40.78,40.78,0,0,1-287,2721.44v-68.31A40.78,40.78,0,0,1-266.73,2618l58.54-33.95a40.61,40.61,0,0,1,20.39-5.47,40.7,40.7,0,0,1,17.07,3.76q1.46,1,3,1.86l58.53,33.95q1.67,1,3.36,1.8a40.8,40.8,0,0,1,17,29.24c-.09,1.32-.14,2.64-.14,4v68.31c0,1.33,0,2.65.14,4a40.81,40.81,0,0,1-20,31.19l-58.54,34A40.71,40.71,0,0,1-208.19,2790.55ZM19.38,2910.44A40.78,40.78,0,0,1-.87,2945.6l-58.54,34a40.71,40.71,0,0,1-40.78,0l-58.54-34A40.78,40.78,0,0,1-179,2910.44v-68.31A40.78,40.78,0,0,1-158.73,2807l58.54-33.95a40.61,40.61,0,0,1,20.39-5.47A40.61,40.61,0,0,1-59.41,2773L-.87,2807a40.78,40.78,0,0,1,20.25,35.16Zm108-189a40.78,40.78,0,0,1-20.25,35.16l-58.54,34a40.71,40.71,0,0,1-40.78,0l-58.54-34a40.81,40.81,0,0,1-20-31.19c.09-1.32.14-2.64.14-4v-68.31c0-1.33,0-2.65-.14-4a40.82,40.82,0,0,1,17-29.24c1.14-.56,2.26-1.16,3.37-1.8l58.53-33.95c1-.59,2-1.21,3-1.86a40.61,40.61,0,0,1,34.13,0q1.45,1,3,1.86l58.53,33.95q1.67,1,3.36,1.8a40.78,40.78,0,0,1,17.25,33.21Zm8.82-330.89a40.61,40.61,0,0,1,20.39,5.47L215.13,2430a40.78,40.78,0,0,1,20.25,35.16v68.31a40.78,40.78,0,0,1-20.25,35.16l-58.54,34a40.72,40.72,0,0,1-37.45,1.71c-1-.65-2-1.27-3-1.86l-58.53-34q-1.66-1-3.36-1.8a40.8,40.8,0,0,1-17-29.24c.09-1.32.14-2.64.14-4v-68.31c0-1.33-.05-2.65-.14-4a40.81,40.81,0,0,1,20-31.19L115.81,2396A40.61,40.61,0,0,1,136.2,2390.55ZM43.44,2205.09q2.28,1.63,4.73,3.06l58.53,33.95a9.05,9.05,0,0,0,3,1.07,40.8,40.8,0,0,1,17.7,33.54V2345a40.78,40.78,0,0,1-20.25,35.16l-58.54,34a40.71,40.71,0,0,1-40.78,0l-58.54-34a40.81,40.81,0,0,1-20-31.19c.09-1.32.14-2.64.14-4v-68.31c0-1.33,0-2.65-.14-4a40.82,40.82,0,0,1,17-29.24c1.14-.56,2.26-1.16,3.37-1.8l58.53-33.95c1-.59,2-1.22,3-1.86a40.53,40.53,0,0,1,32.3-.8Zm83.94-236a40.77,40.77,0,0,1-19,34.4c-.55.3-1.1.6-1.64.91l-58.53,34-1.09.66a40.75,40.75,0,0,1-35.47,1.11c-1.12-.76-2.27-1.48-3.45-2.17l-58.53-34c-1.24-.72-2.51-1.39-3.78-2a40.79,40.79,0,0,1-16.61-28.93c.09-1.32.14-2.64.14-4v-68.31c0-1.33,0-2.65-.14-4a40.82,40.82,0,0,1,17-29.24c1.14-.56,2.26-1.16,3.37-1.8l58.53-34c1-.59,2-1.21,3-1.86a40.61,40.61,0,0,1,34.13,0q1.45,1,3,1.86l58.53,34q1.67,1,3.36,1.8a40.78,40.78,0,0,1,17.25,33.21Zm29.21-325.42,58.54,34a40.78,40.78,0,0,1,20.25,35.16v68.31a40.78,40.78,0,0,1-20.25,35.16l-58.54,34a40.72,40.72,0,0,1-37.45,1.71c-1-.65-2-1.27-3-1.86l-58.53-33.95q-1.66-1-3.36-1.8a40.8,40.8,0,0,1-17-29.24c.09-1.32.14-2.64.14-4v-68.31c0-1.33-.05-2.65-.14-4a40.8,40.8,0,0,1,18.59-30.29q.9-.48,1.8-1l58.53-34c.47-.27.94-.55,1.4-.84a40.68,40.68,0,0,1,39,.94Zm-37.45-168c-1-.64-2-1.26-3-1.85l-58.53-34q-1.66-1-3.36-1.8a40.8,40.8,0,0,1-17-29.24c.09-1.31.14-2.64.14-4v-68.3c0-1.33-.05-2.66-.14-4a40.77,40.77,0,0,1,20-31.19l58.54-34a40.74,40.74,0,0,1,40.78,0l58.54,34a40.76,40.76,0,0,1,20.25,35.16v68.3A40.76,40.76,0,0,1,215.13,1440l-58.54,34A40.72,40.72,0,0,1,119.14,1475.69Z"/></g></g><path class="cls-1" d="M32.88,134.24q1-5,2.16-9.93a83.34,83.34,0,0,1-16-6.12,32.12,32.12,0,0,0-1.36,9.18V157q6.16-4.87,12.74-9.19C31.16,143.27,32,138.73,32.88,134.24Z"/><path class="cls-1" d="M119.62,98.2q-3.06-3-6.34-5.89A135.49,135.49,0,0,0,81.4,71.44l-3.24,1.91a292.38,292.38,0,0,1,15.69,39.91C104.11,109.79,113.11,104.63,119.62,98.2Z"/><path class="cls-1" d="M68.85,127.88a115.35,115.35,0,0,1-24.13-1.44c-.75,3.21-1.47,6.47-2.14,9.76-.33,1.65-.64,3.27-.94,4.89A171.75,171.75,0,0,1,73.13,127.6C71.71,127.72,70.29,127.81,68.85,127.88Z"/><path class="cls-1" d="M44.13,93.38,33.82,99.45a32.81,32.81,0,0,0-10.46,9.79,73.35,73.35,0,0,0,14.11,5.46C39.47,107.27,41.71,100.13,44.13,93.38Z"/><path class="cls-1" d="M68.42,118a93.32,93.32,0,0,0,15.89-2A284.41,284.41,0,0,0,69.62,78.38L57.93,85.26A244.72,244.72,0,0,0,47.16,116.8,104.52,104.52,0,0,0,68.42,118Z"/><path class="cls-1" d="M129.5,109c-1-1.22-2-2.44-3.08-3.64a74.67,74.67,0,0,1-25.57,16,174.65,174.65,0,0,1,21.6-1.65Z"/><path class="cls-6" d="M113.15,92.31q3.28,2.86,6.34,5.89C113,104.63,104,109.79,93.72,113.26A292.38,292.38,0,0,0,78,73.35l-8.54,5a284.41,284.41,0,0,1,14.69,37.54,93.32,93.32,0,0,1-15.89,2A104.52,104.52,0,0,1,47,116.8,244.72,244.72,0,0,1,57.8,85.26L44,93.38c-2.42,6.75-4.66,13.89-6.66,21.32a73.35,73.35,0,0,1-14.11-5.46,32.78,32.78,0,0,0-4.28,9,83.34,83.34,0,0,0,16,6.12q-1.15,4.91-2.16,9.93c-.91,4.49-1.72,9-2.42,13.57,3.63-2.38,7.37-4.62,11.18-6.72.3-1.62.61-3.24.94-4.89.67-3.29,1.39-6.55,2.14-9.76a115.35,115.35,0,0,0,24.13,1.44c1.44-.07,2.86-.16,4.28-.28a172.1,172.1,0,0,1,27.72-6.27,74.67,74.67,0,0,0,25.57-16c1,1.2,2.07,2.42,3.08,3.64l5.69-8.62c-.75-.87-1.5-1.74-2.27-2.61a40.15,40.15,0,0,0,6.94-17,5,5,0,0,1-9.62-2v-1a29.23,29.23,0,0,1-4.38,12.67c-2-1.91-4-3.79-6.06-5.61a146.87,146.87,0,0,0-28.2-19.4l-10.2,6A135.49,135.49,0,0,1,113.15,92.31Z"/><path class="cls-6" d="M135.26,68.44A5.05,5.05,0,0,1,138.94,70a4.93,4.93,0,0,0-8.31,1.46A5,5,0,0,1,135.26,68.44Z"/><path class="cls-1" d="M174.91,114.64h0q.33,1.32.63,2.64a9.17,9.17,0,0,1,6.64-2.86h8.18a9.47,9.47,0,0,1,9.55,9.37v12.36a9,9,0,0,1,1.65-.17h10.09c5.11,0,9.26,4.63,9.26,10.31v2.3q5.85,4,11.36,8.51V127.16A33.1,33.1,0,0,0,216.51,99L193.72,85.84l-.2-.13-20.28,23Q174.15,111.64,174.91,114.64Z"/><path class="cls-1" d="M165.66,124.48c-.42-2.34-.93-4.67-1.53-7-.35-1.32-.73-2.62-1.12-3.92a5,5,0,0,1-1.94-1.63l-11-15.49-8.19,12.38a136.61,136.61,0,0,1,8.27,12.67Q158,122.64,165.66,124.48Z"/><path class="cls-1" d="M137.69,120.12c-.54-.83-1.1-1.64-1.66-2.46l-1.5,2.26C135.59,120,136.64,120,137.69,120.12Z"/><path class="cls-6" d="M149.89,121.17a134,134,0,0,0-8.27-12.67l-5.85,8.85c.57.81,1.12,1.63,1.67,2.45Q143.73,120.27,149.89,121.17Z"/><path class="cls-6" d="M165.51,124.15c2,.49,4,1,6,1.57v-2a9.14,9.14,0,0,1,2.67-6.44c-.21-.87-.42-1.74-.65-2.61h0c-.51-2-1.09-3.94-1.71-5.87l-3,3.29a5.06,5.06,0,0,1-4.08,1.67,5.46,5.46,0,0,1-1.92-.51c.4,1.29.78,2.6,1.12,3.91C164.58,119.47,165.08,121.81,165.51,124.15Z"/><path class="cls-7" d="M172.46,263.42c0-1.65-1.34-2-2.46-2h-2.43v4h2.5C171.7,265.4,172.46,264.77,172.46,263.42Z"/><path class="cls-7" d="M79.59,255.18V265.4h1.92c2.36,0,3.77-1.83,3.77-4.89,0-3.54-1.49-5.33-4.44-5.33Z"/><polygon class="cls-7" points="96.46 256.42 94.78 261.42 98.17 261.42 96.46 256.42"/><polygon class="cls-7" points="153.05 261.42 156.44 261.42 154.73 256.42 153.05 261.42"/><polygon class="cls-7" points="120.04 261.42 123.43 261.42 121.72 256.42 120.04 261.42"/><path class="cls-7" d="M172.17,257.14c0-1.3-.88-2-2.62-2h-2v4H170C171.48,259.15,172.17,258.51,172.17,257.14Z"/><path class="cls-7" d="M135.22,58.22a5.07,5.07,0,0,0,5.11-5V32.39a5.11,5.11,0,0,0-10.22,0V53.18A5.07,5.07,0,0,0,135.22,58.22Z"/><path class="cls-7" d="M155.65,37.79a5.06,5.06,0,0,0,5.11-5V12.15a5.11,5.11,0,0,0-10.22,0V32.78A5.06,5.06,0,0,0,155.65,37.79Z"/><path class="cls-7" d="M176.08,73.55a5.05,5.05,0,0,0,5.11-5V47.91a5.11,5.11,0,0,0-10.21,0V68.54A5.05,5.05,0,0,0,176.08,73.55Z"/><path class="cls-7" d="M155.65,47.88a5.08,5.08,0,0,0-5.11,5.06V58.4a5.11,5.11,0,0,0,10.22,0V52.94A5.08,5.08,0,0,0,155.65,47.88Z"/><path class="cls-7" d="M130.51,71.42c-.06.14-.12.29-.17.44v0a2.46,2.46,0,0,0-.07.29,4.6,4.6,0,0,0-.15,1.18v5.46a5.11,5.11,0,0,0,10.22,0V73.37A5,5,0,0,0,139,69.93a5.12,5.12,0,0,0-8.45,1.49Z"/><path class="cls-7" d="M176.08,32.71a5,5,0,0,0,5.11-5V22.32a5.11,5.11,0,0,0-10.21,0v5.39A5,5,0,0,0,176.08,32.71Z"/><path class="cls-1" d="M32.88,134.27q1-5,2.16-9.93a83.34,83.34,0,0,1-16-6.12,32.12,32.12,0,0,0-1.36,9.18V157q6.16-4.87,12.74-9.19C31.16,143.3,32,138.76,32.88,134.27Z"/><path class="cls-1" d="M119.81,98.23q-3.06-3-6.34-5.89A135.49,135.49,0,0,0,81.59,71.47l-3.24,1.91A293.68,293.68,0,0,1,94,113.29C104.3,109.82,113.3,104.66,119.81,98.23Z"/><path class="cls-1" d="M69,127.91a115.27,115.27,0,0,1-24.13-1.44c-.76,3.21-1.47,6.47-2.14,9.76-.33,1.65-.64,3.27-.94,4.89a171.46,171.46,0,0,1,31.49-13.49C71.9,127.75,70.47,127.84,69,127.91Z"/><path class="cls-1" d="M44.32,93.41,34,99.48a32.71,32.71,0,0,0-10.46,9.79,72.45,72.45,0,0,0,14.11,5.46C39.66,107.3,41.9,100.16,44.32,93.41Z"/><path class="cls-1" d="M68.6,118a93.31,93.31,0,0,0,15.9-2A284.31,284.31,0,0,0,69.8,78.41L58.12,85.29a244.72,244.72,0,0,0-10.77,31.54A104.46,104.46,0,0,0,68.6,118Z"/><path class="cls-1" d="M129.68,109c-1-1.22-2-2.44-3.08-3.64a74.58,74.58,0,0,1-25.57,16,175,175,0,0,1,21.6-1.65Z"/><path class="cls-6" d="M135.45,68.47a5,5,0,0,1,3.67,1.59,4.93,4.93,0,0,0-8.3,1.46A5,5,0,0,1,135.45,68.47Z"/><path class="cls-1" d="M174.91,114.64h0q.33,1.32.63,2.64a9.17,9.17,0,0,1,6.64-2.86h8.75a9.47,9.47,0,0,1,9.55,9.37v12.36a8.85,8.85,0,0,1,1.64-.17h9.53c5.11,0,9.26,4.63,9.26,10.31v2.3q5.85,4,11.36,8.51V127.16A33.1,33.1,0,0,0,216.51,99L193.72,85.84l-.2-.13-20.28,23Q174.15,111.64,174.91,114.64Z"/><path class="cls-1" d="M165.85,124.51q-.63-3.49-1.54-7c-.34-1.32-.72-2.62-1.11-3.92a5.12,5.12,0,0,1-1.95-1.63l-11-15.49-8.19,12.39a135.16,135.16,0,0,1,8.27,12.66Q158.21,122.67,165.85,124.51Z"/><path class="cls-1" d="M137.87,120.15c-.54-.82-1.09-1.64-1.66-2.46L134.72,120C135.77,120,136.83,120.07,137.87,120.15Z"/><path class="cls-1" d="M80.8,252.34H76.19v15.89h5.27c4.49,0,7.07-2.8,7.07-7.68C88.53,255.41,85.64,252.34,80.8,252.34Z"/><polygon class="cls-1" points="156.38 252.34 153.09 252.34 147.39 268.23 150.79 268.23 152.1 264.26 157.36 264.26 158.71 268.23 162.09 268.23 156.42 252.45 156.38 252.34"/><path class="cls-1" d="M151.11,187.07V153.2a1.42,1.42,0,0,0-1.5-1.32h-9.49a1.42,1.42,0,0,0-1.5,1.32v33.87h12.49Z"/><polygon class="cls-1" points="115.92 252.34 102.3 252.34 102.3 255.18 107.41 255.18 107.41 268.23 110.81 268.23 110.81 255.18 115.92 255.18 115.92 252.34"/><polygon class="cls-1" points="98.11 252.34 94.82 252.34 89.12 268.23 92.52 268.23 93.83 264.26 99.09 264.26 100.44 268.23 103.82 268.23 98.15 252.45 98.11 252.34"/><path class="cls-1" d="M171.54,187.07V141.83c0-.18-.53-.74-1.5-.74h-9.48a1.93,1.93,0,0,0-1.3.44.56.56,0,0,0-.2.3v45.24h12.48Z"/><path class="cls-1" d="M130.06,278.57l-2.19-.32a1.11,1.11,0,0,1-.84-.61l-1-2a1.1,1.1,0,0,0-2,0l-1,2a1.09,1.09,0,0,1-.83.61l-2.19.32a1.1,1.1,0,0,0-.61,1.88L121,282a1.11,1.11,0,0,1,.32,1l-.37,2.18a1.1,1.1,0,0,0,1.6,1.16l2-1a1.1,1.1,0,0,1,1,0l2,1a1.1,1.1,0,0,0,1.6-1.16l-.37-2.18a1.08,1.08,0,0,1,.31-1l1.59-1.55A1.1,1.1,0,0,0,130.06,278.57Z"/><polygon class="cls-1" points="125.7 268.23 129.08 268.23 123.41 252.45 123.37 252.34 120.08 252.34 114.38 268.23 117.78 268.23 119.08 264.26 124.35 264.26 125.7 268.23"/><polygon class="cls-1" points="139.19 252.34 135.78 252.34 135.78 268.23 146 268.23 146 265.39 139.19 265.39 139.19 252.34"/><path class="cls-1" d="M173.44,259.86c.75-.28,1.72-1.06,1.72-3.24,0-2.84-1.71-4.28-5.07-4.28h-5.93v15.89h6.56c3.47,0,5.46-1.64,5.46-4.52A3.81,3.81,0,0,0,173.44,259.86Z"/><path class="cls-1" d="M216.14,99.12l-23.32-13-.21-.14-20.76,22.77-3,3.29a5.1,5.1,0,0,1-4.1,1.66,5.25,5.25,0,0,1-1.92-.5,5.14,5.14,0,0,1-2-1.64l-11-15.49-8.21,12.39-5.86,8.85-1.5,2.26c1.06,0,2.11.12,3.16.19q6.31.47,12.49,1.37,7.9,1.14,15.56,3c2,.49,4,1,6,1.56v-2a9.14,9.14,0,0,1,2.67-6.44,9.58,9.58,0,0,1,6.81-2.83h9.52a9.38,9.38,0,0,1,9.38,9.37v12.36a8.73,8.73,0,0,1,1.62-.17H211c5.18,0,9.39,4.63,9.39,10.31v2.17q6.13,4.08,11.92,8.66V127A32.53,32.53,0,0,0,216.14,99.12Z"/><path class="cls-1" d="M211.47,143.93H202c-.71,0-1.5,1-1.5,2.26v40.88H213V146.19C213,144.9,212.18,143.93,211.47,143.93Z"/><path class="cls-1" d="M190.47,122.93H181a1.42,1.42,0,0,0-1.5,1.32v62.82H192V124.25A1.43,1.43,0,0,0,190.47,122.93Z"/><path class="cls-7" d="M221.42,90.42l-21.52-12,12-13.27a5.1,5.1,0,0,0,5.58,4.45,5.21,5.21,0,0,0,4.56-5.24V52.55A5.11,5.11,0,0,0,217,47.44H205a5.21,5.21,0,0,0-5.2,4.3,5.11,5.11,0,0,0,4.87,5.91l-25,27.48A5,5,0,0,0,176,83.54a5,5,0,0,0-5,5v5.37a4.4,4.4,0,0,0,.06.73l-5.45,6L154,84.21a5.09,5.09,0,0,0-8.41.14l-10.45,15.82-5.69,8.62-7,10.67a171.6,171.6,0,0,0-49.28,7.91,172.49,172.49,0,0,0-31.46,13.5q-5.71,3.15-11.17,6.72-6.57,4.31-12.73,9.19V127.37a32.12,32.12,0,0,1,1.36-9.18A32.76,32.76,0,0,1,33.82,99.45l10.31-6.07,13.8-8.12,11.69-6.88,8.54-5,3.24-1.91,10.2-6L117.81,50a5.11,5.11,0,0,0-5.18-8.8l-84,49.43A42.8,42.8,0,0,0,7.51,127.37v89.14a42.79,42.79,0,0,0,21.14,36.73L103,296.88a43.5,43.5,0,0,0,44,0l74.34-43.64a42.79,42.79,0,0,0,21.14-36.73V127.15A42.82,42.82,0,0,0,221.42,90.42ZM102.09,160.59c.21-.89,1.16-1.33,2.83-1.33h3c1.71,0,2.67.44,2.88,1.33L118,190.84c.06.45.1.73.1.86a.87.87,0,0,1-.1.39c-.22.43-.85.65-1.9.65h-2.47c-1.49,0-2.31-.33-2.46-1l-1.21-5.81h-7.08l-1.25,5.81c-.09.44-.44.74-1,.89a5.24,5.24,0,0,1-1.14.11H97c-1.49,0-2.23-.34-2.23-1a2.85,2.85,0,0,1,.14-.86L98.45,176Zm3.61,42.52v36q0,1.86-3.09,1.86h-2.28c-2.09,0-3.14-.62-3.14-1.86v-36c0-1.23,1-1.85,3.14-1.85h2.28C104.67,201.26,105.7,201.88,105.7,203.11ZM75.05,161.64a3.75,3.75,0,0,1,.33-1.81,1.09,1.09,0,0,1,1-.57H94.09a1.15,1.15,0,0,1,1.07.57,3.75,3.75,0,0,1,.33,1.81v1.48a3.78,3.78,0,0,1-.33,1.81,1.15,1.15,0,0,1-1.07.57H89.24v25.72c0,1-.91,1.52-2.72,1.52H84.59c-1.82,0-2.73-.5-2.73-1.52V165.5H76.4a1.09,1.09,0,0,1-1-.57,3.78,3.78,0,0,1-.33-1.81ZM37.67,192.18H30.78a1.67,1.67,0,0,1-1.29-.45,2.07,2.07,0,0,1-.41-1.44V161.14a2.07,2.07,0,0,1,.41-1.44,1.18,1.18,0,0,1,.49-.31,2.1,2.1,0,0,1,.8-.13h9.09c3.8.09,6.61,1.44,8.44,4.08s2.82,6.85,2.82,12.37-.94,9.64-2.82,12.36-4.82,4.1-8.8,4.1Zm29.37,43a10.29,10.29,0,0,1-4,4.3,10.43,10.43,0,0,1-2.84,1.18,15.15,15.15,0,0,1-3.82.46A18.11,18.11,0,0,1,51,240.3a8.12,8.12,0,0,1-3.85-2.22,3.42,3.42,0,0,1-.72-2c0-.21,0-.41,0-.62a7.55,7.55,0,0,1,.79-2.59c.55-1.09,1.15-1.63,1.81-1.63a3.43,3.43,0,0,1,1.41.56c.64.38,1.1.64,1.4.79a8.36,8.36,0,0,0,3.79,1.12,5.62,5.62,0,0,0,3.08-.84A3.14,3.14,0,0,0,60.11,230a4.43,4.43,0,0,0-1.26-3.35,19.07,19.07,0,0,0-4-2.67,19.84,19.84,0,0,1-6-5,11.34,11.34,0,0,1-1.9-6.87,13.32,13.32,0,0,1,.36-3.17,10.58,10.58,0,0,1,1.12-2.82,10.1,10.1,0,0,1,4.1-3.94,12.58,12.58,0,0,1,6-1.38,14.8,14.8,0,0,1,4,.59,10.26,10.26,0,0,1,3.24,1.44,2.31,2.31,0,0,1,1,2,8.61,8.61,0,0,1-.63,3.09c-.42,1.09-1,1.63-1.57,1.63a5.45,5.45,0,0,1-1.59-.45,10.28,10.28,0,0,0-3.58-.84,4,4,0,0,0-3.16,1c-.12.14-.21.29-.31.43a3.43,3.43,0,0,0-.54,1.88,4.15,4.15,0,0,0,1,3.07,15.2,15.2,0,0,0,3.36,2.28c.33.15.82.41,1.48.78a16.25,16.25,0,0,1,5.47,4.84,12.35,12.35,0,0,1,1.68,6.81A13,13,0,0,1,67,235.18Zm2.19-44L68,185.36H61l-1.26,5.82c-.12.66-.85,1-2.18,1H55.26c-1.46,0-2.19-.35-2.19-1a3,3,0,0,1,.13-.84l7-29.75c.21-.87,1.14-1.3,2.79-1.3h3c1.67,0,2.62.43,2.83,1.3l7,29.75a8,8,0,0,1,.09.84c0,.68-.66,1-2,1H71.7C70.21,192.18,69.39,191.84,69.23,191.18Zm12.23,77.05H76.19V252.34H80.8c4.84,0,7.73,3.07,7.73,8.21C88.53,265.43,86,268.23,81.46,268.23Zm4.33-27.11a19.61,19.61,0,0,1-4.12-.42,11.31,11.31,0,0,1-7.07-4.45q-3.5-4.87-3.49-15.39a33.69,33.69,0,0,1,1.54-11,15.66,15.66,0,0,1,2.12-4.12q3.65-5,11.3-5a17.72,17.72,0,0,1,4.78.62,2.26,2.26,0,0,1,1.71,2.42,9.35,9.35,0,0,1-.75,3.83,4.52,4.52,0,0,1-.28.54q-.66,1.07-1.56.75a11.77,11.77,0,0,0-1.42-.35,10.68,10.68,0,0,0-2.1-.21,5.3,5.3,0,0,0-2.84.75,5.9,5.9,0,0,0-2.08,2.34q-1.62,3.11-1.62,9.4c0,4.2.54,7.35,1.62,9.43a5.45,5.45,0,0,0,5.2,3.12,8.89,8.89,0,0,0,1.76-.14c.47-.09,1.1-.25,1.87-.48a1.93,1.93,0,0,1,.49-.05c.73,0,1.28.47,1.65,1.4a10.35,10.35,0,0,1,.55,3.72,3.32,3.32,0,0,1-.11.86,2,2,0,0,1-.22.57,2.19,2.19,0,0,1-1.26.93,14.2,14.2,0,0,1-2.48.59A19.44,19.44,0,0,1,85.79,241.12Zm14.65,27.11-1.35-4H93.83l-1.31,4h-3.4l5.7-15.89h3.3l0,.11,5.67,15.78Zm10.37,0H107.4V255.18h-5.1v-2.84h13.62v2.84h-5.11Zm7,0h-3.4l5.7-15.89h3.29l0,.11,5.67,15.78H125.7l-1.35-4h-5.26Zm12.89,12.22L129.08,282a1.08,1.08,0,0,0-.31,1l.37,2.18a1.1,1.1,0,0,1-1.6,1.16l-2-1a1.1,1.1,0,0,0-1,0l-2,1a1.1,1.1,0,0,1-1.6-1.16l.37-2.18a1.11,1.11,0,0,0-.32-1l-1.58-1.55a1.1,1.1,0,0,1,.61-1.88l2.19-.32a1.09,1.09,0,0,0,.83-.61l1-2a1.1,1.1,0,0,1,2,0l1,2a1.11,1.11,0,0,0,.84.61l2.19.32A1.1,1.1,0,0,1,130.67,280.45Zm1.14-74.63a4.44,4.44,0,0,1-.39,2.14,1.3,1.3,0,0,1-1.21.68h-9.75v7.94h8.61a1.31,1.31,0,0,1,1.22.68,4.44,4.44,0,0,1,.39,2.14v1.75a4.5,4.5,0,0,1-.39,2.14,1.3,1.3,0,0,1-1.22.67h-8.61V233h9.85a1.21,1.21,0,0,1,1.14.67,4.77,4.77,0,0,1,.36,2.14v1.74a4.84,4.84,0,0,1-.36,2.15,1.24,1.24,0,0,1-1.19.67H114a2,2,0,0,1-1.53-.53,2.44,2.44,0,0,1-.49-1.71V203.5a2.44,2.44,0,0,1,.49-1.71,2,2,0,0,1,1.53-.53h16.24a1.29,1.29,0,0,1,1.21.67,4.47,4.47,0,0,1,.39,2.14ZM146,268.23H135.78V252.34h3.41V265.4H146Zm12.71,0-1.35-4H152.1l-1.31,4h-3.4l5.7-15.89h3.29l0,.11,5.67,15.78Zm4.89-29.05c0,1.21-1.08,1.81-3.24,1.81H159.3a4.83,4.83,0,0,1-1.84-.31,2.41,2.41,0,0,1-1.17-1.27l-10.42-18.76-.23-.43a25.28,25.28,0,0,1-1.51-3.61l-.28.17a25,25,0,0,1,.45,3.84v18.56c0,1.21-1.08,1.81-3.24,1.81h-1.47c-2.16,0-3.24-.6-3.24-1.81V203.06q0-1.8,3.24-1.8H141a4.21,4.21,0,0,1,1.78.31,2.46,2.46,0,0,1,1.12,1.27l1.7,3.12,5.13,9.41,3.21,5.87a40.45,40.45,0,0,1,1.89,4.4l.23-.11a32.14,32.14,0,0,1-.45-4.46v-18c0-1.2,1.08-1.8,3.23-1.8h1.48a9.51,9.51,0,0,1,1.13.07c1.39.19,2.11.76,2.11,1.73Zm-25-52.11V153.2a1.42,1.42,0,0,1,1.5-1.32h9.49a1.42,1.42,0,0,1,1.5,1.32v33.87H138.62Zm20.44,0V141.83a.56.56,0,0,1,.2-.3,1.93,1.93,0,0,1,1.3-.44H170c1,0,1.5.56,1.5.74v45.24H159.06Zm11.66,81.16h-6.56V252.34h5.93c3.36,0,5.07,1.44,5.07,4.28,0,2.18-1,3-1.72,3.24a3.81,3.81,0,0,1,2.74,3.85C176.18,266.59,174.19,268.23,170.72,268.23ZM190,239.34a2.25,2.25,0,0,1-1.27.93,14.06,14.06,0,0,1-2.47.59,19.53,19.53,0,0,1-3.19.26q-7.71,0-11.19-4.87t-3.5-15.39q0-10.14,3.66-15.09t11.3-5a17.66,17.66,0,0,1,4.78.62,2.26,2.26,0,0,1,1.71,2.42,9.51,9.51,0,0,1-.74,3.83c-.5,1.12-1.11,1.55-1.84,1.29a11.7,11.7,0,0,0-3.52-.56,5.26,5.26,0,0,0-4.93,3.09q-1.62,3.11-1.62,9.4c0,4.2.54,7.35,1.62,9.43a5.46,5.46,0,0,0,5.2,3.12,8.82,8.82,0,0,0,1.76-.14,19.28,19.28,0,0,0,1.87-.48,2,2,0,0,1,.49-.05c.74,0,1.29.47,1.65,1.4a10.35,10.35,0,0,1,.55,3.72A3,3,0,0,1,190,239.34Zm2-105.93v53.66H179.49V124.25a1.42,1.42,0,0,1,1.5-1.32h9.48a1.43,1.43,0,0,1,1.51,1.32Zm22.7,72.41a4.44,4.44,0,0,1-.39,2.14,1.31,1.31,0,0,1-1.22.68h-9.74v7.94h8.61a1.31,1.31,0,0,1,1.22.68,4.46,4.46,0,0,1,.38,2.14v1.75a4.52,4.52,0,0,1-.38,2.14,1.3,1.3,0,0,1-1.22.67h-8.61V233h9.8a1.25,1.25,0,0,1,1.19.68,4.77,4.77,0,0,1,.36,2.14v1.74a4.84,4.84,0,0,1-.36,2.15,1.24,1.24,0,0,1-1.19.67H196.84a2,2,0,0,1-1.53-.53,2.44,2.44,0,0,1-.5-1.71V203.5a2.44,2.44,0,0,1,.5-1.71,2,2,0,0,1,1.53-.53h16.23a1.3,1.3,0,0,1,1.22.67,4.47,4.47,0,0,1,.39,2.14Zm-14.19-18.75V146.19c0-1.29.79-2.26,1.5-2.26h9.48c.71,0,1.51,1,1.51,2.26v40.88Zm31.79-29.95q-5.78-4.58-11.92-8.66v-2.17c0-5.68-4.21-10.31-9.39-10.31h-9.43a8.73,8.73,0,0,0-1.62.17V123.79a9.38,9.38,0,0,0-9.38-9.37H181a9.58,9.58,0,0,0-6.81,2.83,9.14,9.14,0,0,0-2.67,6.44v2c-2-.56-4-1.07-6-1.56q-7.65-1.84-15.56-3-6.18-.9-12.49-1.37c-1.05-.07-2.1-.14-3.16-.19l1.5-2.26,5.86-8.85,8.21-12.39,11,15.49a5.14,5.14,0,0,0,2,1.64,5.25,5.25,0,0,0,1.92.5,5.1,5.1,0,0,0,4.1-1.66l3-3.29L192.61,86l.21.14,23.32,13A32.53,32.53,0,0,1,232.28,127Z"/><path class="cls-7" d="M64.58,166.07h-.23c-.16,1.26-.34,2.46-.56,3.59l-2,10h5.45l-2.07-10C64.92,168.53,64.73,167.33,64.58,166.07Z"/><path class="cls-7" d="M39.45,165.5h-3v21h3A3.66,3.66,0,0,0,43,184.13c.72-1.59,1.08-4.29,1.08-8.13s-.36-6.55-1.08-8.13A3.66,3.66,0,0,0,39.45,165.5Z"/><path class="cls-7" d="M109.14,179.69v0l-2.07-10c-.22-1.13-.4-2.33-.56-3.59h-.23c-.15,1.26-.34,2.46-.55,3.59l-2,10h5.46Z"/></svg>