<svg id="Layer_1" data-name="Layer 1" xmlns="http://www.w3.org/2000/svg" viewBox="0 0 250 310"><defs><style>.cls-1,.cls-3{fill:#9ba8a6;}.cls-2{fill:none;}.cls-3{opacity:0.3;}</style></defs><path class="cls-1" d="M39.08,194.66a10.77,10.77,0,0,0,.76-3A36.84,36.84,0,0,0,40.1,187q0-5.44-1-7.69a3.88,3.88,0,0,0-1.24-1.59,3.48,3.48,0,0,0-2.13-.65H32.88V196.9h2.83A3.46,3.46,0,0,0,39.08,194.66Z"/><path class="cls-1" d="M59.75,178.17h-.22c-.15,1.21-.33,2.36-.53,3.45l-2,9.61h5.22l-2-9.61C60.07,180.53,59.9,179.38,59.75,178.17Z"/><path class="cls-1" d="M101.94,191.23,100.63,185l-.69-3.33c-.2-1.09-.38-2.24-.53-3.45h-.22c-.15,1.21-.33,2.36-.53,3.45l-2,9.61h5.23Z"/><path class="cls-1" d="M59.86,217.57a3.45,3.45,0,0,0-2.43-.86,3.52,3.52,0,0,0-2.45.86,5.64,5.64,0,0,0-1.42,3,27.73,27.73,0,0,0-.48,5.84,28.11,28.11,0,0,0,.48,5.87,8.69,8.69,0,0,0,.56,1.74,3.87,3.87,0,0,0,.86,1.26,3.52,3.52,0,0,0,2.45.86,3.45,3.45,0,0,0,2.43-.86,2.67,2.67,0,0,0,.31-.35,6.55,6.55,0,0,0,1.07-2.63,37.62,37.62,0,0,0,0-11.73A5.71,5.71,0,0,0,59.86,217.57Z"/><path class="cls-2" d="M109.5,106.11V99.28a5.12,5.12,0,0,1,2.83-4.57l2.08-1-1.3-1.18A135.45,135.45,0,0,0,81.23,71.63L78,73.54a293.68,293.68,0,0,1,15.69,39.91A76.84,76.84,0,0,0,109.5,106.11Z"/><path class="cls-2" d="M109.5,117.54a85.07,85.07,0,0,1-8.82,4q4.38-.61,8.82-1Z"/><path class="cls-2" d="M68.68,128.07a115.27,115.27,0,0,1-24.13-1.44q-1.14,4.81-2.14,9.76c-.33,1.65-.64,3.27-.94,4.88A172.84,172.84,0,0,1,73,127.78C71.54,127.91,70.12,128,68.68,128.07Z"/><path class="cls-2" d="M68.25,118.16a94.34,94.34,0,0,0,15.89-2,283.75,283.75,0,0,0-14.7-37.54L57.76,85.45A244.56,244.56,0,0,0,47,117,104.51,104.51,0,0,0,68.25,118.16Z"/><path class="cls-2" d="M44,93.57,33.65,99.64a32.6,32.6,0,0,0-10.46,9.79,73.09,73.09,0,0,0,14.11,5.46C39.3,107.46,41.54,100.32,44,93.57Z"/><path class="cls-2" d="M32.7,134.43c.68-3.35,1.4-6.67,2.17-9.93a84,84,0,0,1-16-6.12,31.78,31.78,0,0,0-1.36,9.18v29.63q6.15-4.87,12.74-9.19C31,143.46,31.8,138.92,32.7,134.43Z"/><path class="cls-3" d="M129.94,79.13a28.56,28.56,0,0,1-2.35,8l2.35-1.18Z"/><path class="cls-3" d="M32.7,134.43c-.9,4.49-1.71,9-2.41,13.57q5.45-3.57,11.18-6.73c.3-1.61.61-3.23.94-4.88q1-4.95,2.14-9.76a115.27,115.27,0,0,0,24.13,1.44c1.44-.07,2.86-.16,4.28-.29a172.08,172.08,0,0,1,27.72-6.26,85.07,85.07,0,0,0,8.82-4V106.11a76.84,76.84,0,0,1-15.82,7.34A293.68,293.68,0,0,0,78,73.54l-8.55,5a283.75,283.75,0,0,1,14.7,37.54,94.34,94.34,0,0,1-15.89,2A104.51,104.51,0,0,1,47,117,244.56,244.56,0,0,1,57.76,85.45L44,93.57c-2.42,6.75-4.66,13.89-6.66,21.32a73.09,73.09,0,0,1-14.11-5.46,32.78,32.78,0,0,0-4.28,8.95,84,84,0,0,0,16,6.12C34.1,127.76,33.38,131.08,32.7,134.43Z"/><path class="cls-3" d="M135,68.63h.05a5,5,0,0,1,3.68,1.59,5,5,0,0,0-7.56.14A5.11,5.11,0,0,1,135,68.63Z"/><path class="cls-3" d="M113.11,92.49l1.3,1.18,9.48-4.74c-1.39-1.32-2.8-2.63-4.26-3.9a147.18,147.18,0,0,0-28.2-19.4l-10.2,6A135.45,135.45,0,0,1,113.11,92.49Z"/><path class="cls-1" d="M172,257.33c0-1.3-.88-2-2.62-2h-2v4h2.43C171.31,259.34,172,258.7,172,257.33Z"/><polygon class="cls-1" points="121.55 256.61 119.87 261.61 123.26 261.61 121.55 256.61"/><path class="cls-1" d="M169.83,261.61H167.4v4h2.49c1.63,0,2.39-.62,2.39-2C172.28,262,171,261.61,169.83,261.61Z"/><polygon class="cls-1" points="94.61 261.61 98 261.61 96.29 256.61 94.61 261.61"/><polygon class="cls-1" points="152.88 261.61 156.27 261.61 154.56 256.61 152.88 261.61"/><path class="cls-1" d="M80.67,255.37H79.42v10.21h1.92c2.36,0,3.77-1.82,3.77-4.88C85.11,257.16,83.62,255.37,80.67,255.37Z"/><path class="cls-1" d="M135,58.41a5.07,5.07,0,0,0,5.11-5V32.58a5.11,5.11,0,0,0-10.21,0V53.37A5.07,5.07,0,0,0,135,58.41Z"/><path class="cls-1" d="M155.48,38a5.06,5.06,0,0,0,5.11-5V12.34a5.11,5.11,0,0,0-10.22,0V33A5.06,5.06,0,0,0,155.48,38Z"/><path class="cls-1" d="M155.48,48.07a5.08,5.08,0,0,0-5.11,5.06v5.46a5.11,5.11,0,0,0,10.22,0V53.13A5.08,5.08,0,0,0,155.48,48.07Z"/><path class="cls-1" d="M175.91,32.9a5.06,5.06,0,0,0,5.11-5V22.51a5.11,5.11,0,0,0-10.22,0V27.9A5.06,5.06,0,0,0,175.91,32.9Z"/><path class="cls-1" d="M136.89,119.5a5.07,5.07,0,0,0,3.26-4.72v-5.46a5.11,5.11,0,0,0-10.21,0v5.46a5.12,5.12,0,0,0,6.95,4.72Z"/><path class="cls-1" d="M152.59,154.71a5.12,5.12,0,0,0,8-4.17v-5.46a5,5,0,0,0-1.36-3.43,5.12,5.12,0,0,0-8.86,3.43v5.46A5,5,0,0,0,152.59,154.71Z"/><path class="cls-1" d="M111.6,154.71a5.12,5.12,0,0,0,8-4.17v-5.46a5,5,0,0,0-1.36-3.43,5.12,5.12,0,0,0-8.86,3.43v5.46A5,5,0,0,0,111.6,154.71Z"/><path class="cls-1" d="M135,191.36a5.08,5.08,0,0,0,5.11-5.06v-5.46a5,5,0,0,0-.56-2.31,5.11,5.11,0,0,0-9.65,2.31v5.46A5.08,5.08,0,0,0,135,191.36Z"/><path class="cls-1" d="M242.32,170.8c-.95-25.07,7-66-21.14-80-7.34-6-13.89,5.12-5.17,8.81,20.56,10.28,15.72,39,16.09,57.55q-5-3.94-10.21-7.51c.36-24.6,1.14-15.81-20.44-28-1.1-29,6.75-22.45-20.43-35.76,0-3.88,0-18.81,0-22.38V48.09a5.11,5.11,0,0,0-10.22,0V63.52c0,3.6,0,18.53,0,22.38L160.59,91V78.55c.09-6.54-10.32-6.55-10.22,0,0,.23,0,12.23,0,12.46L140.15,85.9c-.14-1.51.4-13.07-.42-14.19-1.26-3.38-6.25-4.13-8.52-1.35-1.93,1.73-1.12,6.48-1.27,8.77V85.9c-3.79,1.88-11.65,5.84-15.53,7.77-2.4,1-5,2.67-4.91,5.61v21.24a172.43,172.43,0,0,0-91.95,36.67c.73-19.78-5.16-45.87,16.1-57.55,15-8.82,32.59-19.2,47.58-28,6.71-4.25,29.33-17,36.41-21.43a5.11,5.11,0,0,0-5.18-8.81l-84,49.44A42.81,42.81,0,0,0,7.34,127.56V216.7a42.81,42.81,0,0,0,21.13,36.73c113.34,65.6,79.27,65.71,192.71,0,21.28-11.58,22.32-35.74,21.14-57.09Zm-81.73-63.62v-4.74l15.32-7.67,15.33,7.67v19.22L176,129.31l-15.36-7.65ZM191.24,174v19.24L176,200.84l-15.39-7.67V174l15.32-7.66Zm-36.47-43.06.71-.36,15.32,7.66v19.23l-15.29,7.65-1.13-.56-14.23-7.09V138.19ZM144,216.77h-.36a1,1,0,0,1-.91-.52,3.58,3.58,0,0,1-.29-1.65v-1.34a3.6,3.6,0,0,1,.29-1.65,1,1,0,0,1,.91-.52h15.72a1,1,0,0,1,1,.52,3.6,3.6,0,0,1,.29,1.65v1.34a3.58,3.58,0,0,1-.29,1.65,1,1,0,0,1-1,.52h-4.43v23c0,.91-.84,1.37-2.52,1.37h-1.77c-1.68,0-2.52-.46-2.52-1.37v-23Zm-24.29,24.41H107.1c-1.14,0-1.57-.62-1.57-1.72V212.81a1.92,1.92,0,0,1,.38-1.31c.56-.83,4.86-.23,5.7-.41h8c1.13.08,1.19,1,1.23,2.15s.38,3.47-1.2,3.53h-7.31V223h6.32c2-.29,1.6,2.15,1.63,3.51,0,1.16-.11,2.1-1.25,2.17h-6.7v6.81h3.54c1.79.24,5.43-1.05,5,2.17C120.76,238.83,121.25,241.12,119.69,241.18Zm0-48V174L135,166.29,150.37,174v19.24l-15.26,7.65Zm0-73.25V102.44L134.66,95l.38-.2,15.33,7.67v19.22l-15.29,7.65-15.36-7.65ZM99.29,138.19l15.32-7.66,15.33,7.66v19.23l-15.29,7.65-15.36-7.65ZM26.07,198.73c0-6,0-19.47,0-25.58-.09-1.52.95-1.91,2.26-1.79H36c13.44-1.58,14.63,26.09,4.62,30.37-2.76,1.39-8.83.69-11.87.85-.64,0-1.86.12-2.25-.42C25.84,201.62,26.13,199.52,26.07,198.73Zm18.55,41.65c-1.16,1.31-3.55,1.22-5.27,1.34-9.26-.1-11.06-6.64-11.17-15.41-.6-9.8,5-17.5,15-14.78,2,.54,1.27,3.42.73,4.76-1.18,2.67-5.62-1.8-7.82,2.91-1.73,4.1-2.88,16.58,4,16.7a13.8,13.8,0,0,0,3.14-.51C45,235.63,45.15,238.81,44.62,240.38Zm22.3-4.93c-1.56,4-4.86,6.31-9.53,6.27-15.27,1.38-14.32-32.75,0-30.66C69.33,210.56,69.76,227,66.92,235.45Zm1.75-32.87c-6.43.39-4.25-1.23-5.76-6.24H56.42l-1.15,5.32c-.11,1.29-3.31.85-4.36.92-1.88,0-2.35-.51-1.95-1.77L50.8,193l4.83-20.43c.21-1.67,4.06-1.17,5.46-1.24,1.59,0,2.49.42,2.69,1.24l5,21.18,1.66,7C70.72,202.13,70.42,202.53,68.67,202.58Zm2-26.06c-.41-1.1-.91-5.16,1-5.16H88.32c1.68,0,1.25,2.28,1.32,3.51S89.51,177,88.32,177H83.39v24.65c.22,1.63-2.9,1.5-4.29,1.46-1.68,0-2.52-.49-2.52-1.46V177C75.8,176.85,71,177.54,70.65,176.52ZM73,240.77c-1-3.3-.09-24.39-.37-28.3-.36-2,6.61-1.93,6.24,0v23c.76.22,6.8-.53,7.09.51a8.45,8.45,0,0,1,0,4.65,1,1,0,0,1-.94.52C84.37,241,73.08,241.6,73,240.77Zm8.3,27.65H76V252.53h4.62C90.35,251.55,91.19,269.06,81.28,268.42Zm7.21-66.81c-.18.1,2.19-9.31,2.2-9.54l4.6-19.47c.32-1.71,3.94-1.15,5.46-1.24s2.49.42,2.69,1.24,6.87,28.22,6.76,29c.11,1.4-3.27.89-4.26,1-1.37,0-2.12-.3-2.26-.92l-1.11-5.32H96.08l-1.09,5c-.1.87-.66,1.18-2.06,1.2C91.76,202.42,88.71,203.13,88.49,201.61Zm.58,32.09V212.47c0-.92.84-1.38,2.53-1.38,1.35,0,4.5-.17,4.28,1.38v23H102c1.88.09,1.25,3.81,1,5,0,1.42-11.33.35-12.34.67C87.9,241.54,89.45,235.14,89.07,233.7Zm11.2,34.72-1.35-4H93.65l-1.3,4H89l5.7-15.89h3.29c0,.1,5.67,15.78,5.7,15.89Zm10.37,0h-3.41V255.37h-5.11v-2.84h13.63v2.84h-5.11Zm3.57,0,5.7-15.89h3.29c0,.1,5.66,15.78,5.7,15.89h-3.37l-1.35-4h-5.27l-1.31,4Zm16,14.47c-.45.56-2.15,1.65-1.9,2.52.23,1.11,1,4.14-1.23,3.34-.68-.25-2.24-1.53-3-1-3.22,2-4.08,1.37-3.19-2.32.26-.87-1.47-2-1.9-2.52-1.44-1.86,1.66-2.09,2.8-2.21,1.51-.24,1.77-5,3.79-2.59.4.6.91,2.56,1.82,2.59C128.57,280.8,131.68,281,130.24,282.89ZM126.54,238a15,15,0,0,1-2.33-6.6,36.06,36.06,0,0,1-.33-5.11,28.74,28.74,0,0,1,.71-6.78,13.3,13.3,0,0,1,2.07-4.7q2.79-3.77,8.6-3.77h.28a13.24,13.24,0,0,1,3.36.46,1.72,1.72,0,0,1,1.3,1.84,7.31,7.31,0,0,1-.56,2.92c-.38.85-.85,1.18-1.41,1a8.87,8.87,0,0,0-2.67-.43,4,4,0,0,0-3.75,2.36q-1.23,2.36-1.23,7.15c0,.38,0,.75,0,1.1a14.66,14.66,0,0,0,1.22,6.07,4.14,4.14,0,0,0,4,2.38,6.3,6.3,0,0,0,1.33-.11c.37-.07.84-.19,1.43-.36a1.18,1.18,0,0,1,.37,0c.56,0,1,.35,1.26,1.07a7.83,7.83,0,0,1,.42,2.82,2.32,2.32,0,0,1-.25,1.1,1.7,1.7,0,0,1-1,.7,11.09,11.09,0,0,1-1.88.45,14.77,14.77,0,0,1-2.43.19Q129.2,241.72,126.54,238Zm19.29,30.4H135.61V252.53H139v13h6.81Zm12.71,0-1.35-4h-5.27l-1.3,4h-3.4l5.7-15.89h3.29c0,.1,5.67,15.78,5.7,15.89Zm4.32-28.65V212.5c0-.94.83-1.41,2.51-1.41h1.82c1.65,0,2.48.47,2.48,1.41v27.27c0,.94-.83,1.41-2.48,1.41h-1.82C163.69,241.18,162.86,240.71,162.86,239.77Zm7.68,28.65H164V252.53h5.92c5-.7,6.78,5.8,3.35,7.51C177.81,261.39,176.41,269.17,170.54,268.42ZM192.2,238q-2.79,3.72-8.14,3.72-11,0-11-15.33t11-15.33q5.35,0,8.14,3.73t2.78,11.6Q195,234.28,192.2,238ZM181,157.42V138.19l15.32-7.66,15.33,7.66v19.23l-15.29,7.65Zm38.6,82.39s0,0,0,0c0,.81-.72,1.24-2.08,1.31l-.39,0h-.81a3.57,3.57,0,0,1-1.41-.24,1.76,1.76,0,0,1-.89-1l-8.15-14.53a20,20,0,0,1-1.15-2.73l-.21.13a19.91,19.91,0,0,1,.34,2.9v14.06c0,.91-.83,1.37-2.48,1.37h-1.29c-1.65,0-2.48-.46-2.48-1.37V212.46c0-.91.83-1.37,2.48-1.37h1.11a3.22,3.22,0,0,1,1.36.24,1.91,1.91,0,0,1,.86,1l7.67,13.93a30.79,30.79,0,0,1,1.45,3.33l.17-.08a25.38,25.38,0,0,1-.34-3.38V212.46c0-.91.83-1.37,2.48-1.37h1.29c1.65,0,2.48.46,2.48,1.37Zm12.48-46.62-15.25,7.65-15.4-7.67V174l15.33-7.66L232.1,174Z"/><path class="cls-1" d="M186.52,217.57a3.41,3.41,0,0,0-2.42-.86,3.5,3.5,0,0,0-2.45.86,5.64,5.64,0,0,0-1.42,3,27.73,27.73,0,0,0-.48,5.84,28.11,28.11,0,0,0,.48,5.87,5.67,5.67,0,0,0,1.42,3,3.5,3.5,0,0,0,2.45.86,3.41,3.41,0,0,0,2.42-.86,5.63,5.63,0,0,0,1.39-3,37.62,37.62,0,0,0,0-11.73A5.63,5.63,0,0,0,186.52,217.57Z"/></svg>